<svg width="749" height="749" viewBox="0 0 749 749" fill="none" xmlns="http://www.w3.org/2000/svg">
<path d="M701.813 162.054C699.436 158.059 696.939 154.109 694.323 150.204C659.614 98.7631 599.859 63.5751 541.078 47.6664C515.288 40.801 488.794 36.9306 462.118 36.1318C287.421 30.2147 217.839 167.956 160.106 203.428C102.373 238.901 13.482 299.6 19.474 426.93C25.466 554.26 117.174 674.1 294.821 681.59C472.469 689.08 484.318 609.057 583.501 579.441C649.143 559.847 695.851 493.666 718.621 432.517C749.749 349.154 748.281 240.893 701.813 162.054Z" fill="#00A896"/>
<path opacity="0.7" d="M701.813 162.054C699.436 158.059 696.939 154.109 694.323 150.204C659.614 98.7631 599.859 63.5751 541.078 47.6664C515.288 40.801 488.794 36.9306 462.118 36.1318C287.421 30.2147 217.839 167.956 160.106 203.428C102.373 238.901 13.482 299.6 19.474 426.93C25.466 554.26 117.174 674.1 294.821 681.59C472.469 689.08 484.318 609.057 583.501 579.441C649.143 559.847 695.851 493.666 718.621 432.517C749.749 349.154 748.281 240.893 701.813 162.054Z" fill="white"/>
<path d="M40.0116 700.105H731.324" stroke="#263238" stroke-miterlimit="10" stroke-linecap="round"/>
<path d="M556.687 95.6173C556.69 92.5733 555.79 89.5968 554.1 87.0646C552.411 84.5323 550.008 82.5581 547.197 81.3918C544.385 80.2256 541.29 79.9196 538.305 80.5128C535.319 81.1059 532.576 82.5714 530.424 84.7239C528.271 86.8764 526.806 89.619 526.213 92.6047C525.62 95.5904 525.925 98.6849 527.092 101.497C528.258 104.308 530.232 106.711 532.764 108.4C535.297 110.09 538.273 110.99 541.317 110.987C545.392 110.983 549.299 109.362 552.181 106.481C555.062 103.599 556.683 99.6924 556.687 95.6173V95.6173Z" stroke="#ABABAB" stroke-miterlimit="10"/>
<path d="M577 100.006V91.2132H566.738C566.094 87.4366 564.609 83.853 562.394 80.7272L569.644 73.4769L563.443 67.2602L556.177 74.5105C553.046 72.305 549.465 70.8213 545.691 70.1663V59.92H536.898V70.1813C533.125 70.8391 529.545 72.3226 526.412 74.5255L519.147 67.2752L512.945 73.4919L520.195 80.7422C517.992 83.8748 516.509 87.4555 515.851 91.2282H505.59V100.021H515.851C516.506 103.795 517.99 107.376 520.195 110.507L512.945 117.773L519.147 123.974L526.412 116.724C529.538 118.939 533.121 120.424 536.898 121.068V131.33H545.691V121.038C549.469 120.398 553.053 118.913 556.177 116.694L563.443 123.945L569.644 117.743L562.394 110.478C564.613 107.353 566.097 103.769 566.738 99.9915L577 100.006Z" stroke="#ABABAB" stroke-miterlimit="10"/>
<path d="M592.369 151.613C592.369 148.573 591.468 145.601 589.779 143.074C588.09 140.546 585.69 138.576 582.881 137.413C580.073 136.25 576.983 135.945 574.001 136.538C571.02 137.131 568.281 138.595 566.132 140.745C563.982 142.894 562.519 145.633 561.926 148.614C561.332 151.596 561.637 154.686 562.8 157.494C563.963 160.303 565.933 162.703 568.461 164.392C570.988 166.081 573.96 166.982 577 166.982C581.076 166.982 584.985 165.363 587.868 162.48C590.75 159.598 592.369 155.689 592.369 151.613V151.613Z" stroke="#ABABAB" stroke-miterlimit="10"/>
<path d="M612.682 156.002V147.223H602.421C601.774 143.447 600.29 139.864 598.076 136.737L605.342 129.487L599.2 123.27L591.935 130.536C588.811 128.317 585.226 126.832 581.449 126.192V115.93H572.67V126.192C568.894 126.835 565.31 128.32 562.184 130.536L554.934 123.27L548.717 129.487L555.968 136.737C553.765 139.869 552.286 143.45 551.638 147.223H541.377V156.002H551.638C552.286 159.775 553.765 163.356 555.968 166.488L548.657 173.768L554.874 179.985L562.124 172.719C565.25 174.935 568.834 176.42 572.61 177.064V187.25H581.389V176.989C585.166 176.348 588.751 174.863 591.875 172.645L599.14 179.91L605.342 173.768L598.076 166.518C600.29 163.391 601.774 159.808 602.421 156.032L612.682 156.002Z" stroke="#ABABAB" stroke-miterlimit="10"/>
<path d="M148.302 418.316H81.9706V466.552H148.302V418.316Z" stroke="#ABABAB" stroke-miterlimit="10"/>
<path d="M148.302 446.254L137.127 432.023L119.331 450.119L104.396 441.88L81.9706 466.552H148.302V446.254Z" stroke="#ABABAB" stroke-miterlimit="10"/>
<path d="M96.0967 436.742C99.8114 436.742 102.823 433.731 102.823 430.016C102.823 426.301 99.8114 423.29 96.0967 423.29C92.382 423.29 89.3707 426.301 89.3707 430.016C89.3707 433.731 92.382 436.742 96.0967 436.742Z" stroke="#ABABAB" stroke-miterlimit="10"/>
<path d="M106.643 360.239H40.3112V408.475H106.643V360.239Z" stroke="#ABABAB" stroke-miterlimit="10"/>
<path d="M106.628 388.177L95.4675 373.946L77.6563 392.042L62.7362 383.803L40.3112 408.49H106.628V388.177Z" stroke="#ABABAB" stroke-miterlimit="10"/>
<path d="M61.1483 371.938C61.1483 370.608 60.7539 369.308 60.0148 368.202C59.2757 367.096 58.2253 366.234 56.9962 365.724C55.7672 365.215 54.4149 365.082 53.1101 365.342C51.8054 365.601 50.6069 366.242 49.6663 367.182C48.7256 368.123 48.0851 369.322 47.8255 370.626C47.566 371.931 47.6992 373.283 48.2083 374.512C48.7174 375.741 49.5795 376.792 50.6855 377.531C51.7916 378.27 53.092 378.664 54.4223 378.664C56.2062 378.664 57.917 377.956 59.1783 376.694C60.4397 375.433 61.1483 373.722 61.1483 371.938V371.938Z" stroke="#ABABAB" stroke-miterlimit="10"/>
<path d="M687.178 222.917H608.098V238.736H687.178V222.917Z" stroke="#ABABAB" stroke-miterlimit="10"/>
<path d="M687.178 242.691H608.098V258.51H687.178V242.691Z" stroke="#ABABAB" stroke-miterlimit="10"/>
<path d="M687.178 262.48H608.098V278.298H687.178V262.48Z" stroke="#ABABAB" stroke-miterlimit="10"/>
<path d="M687.178 282.253H608.098V298.072H687.178V282.253Z" stroke="#ABABAB" stroke-miterlimit="10"/>
<path d="M687.178 302.027H608.098V317.846H687.178V302.027Z" stroke="#ABABAB" stroke-miterlimit="10"/>
<path d="M663.869 231.276C663.872 230.7 663.703 230.136 663.385 229.656C663.067 229.176 662.613 228.801 662.082 228.579C661.55 228.357 660.964 228.299 660.399 228.41C659.834 228.522 659.315 228.799 658.908 229.206C658.5 229.614 658.223 230.133 658.111 230.698C658 231.263 658.059 231.849 658.28 232.38C658.502 232.912 658.877 233.366 659.357 233.684C659.837 234.002 660.401 234.17 660.977 234.167C661.744 234.167 662.48 233.863 663.022 233.321C663.564 232.778 663.869 232.043 663.869 231.276V231.276Z" stroke="#ABABAB" stroke-miterlimit="10"/>
<path d="M673.995 231.276C673.995 230.704 673.826 230.145 673.508 229.67C673.19 229.195 672.739 228.824 672.21 228.605C671.682 228.386 671.101 228.329 670.54 228.441C669.979 228.552 669.464 228.828 669.06 229.232C668.655 229.636 668.38 230.151 668.268 230.712C668.157 231.273 668.214 231.854 668.433 232.383C668.652 232.911 669.022 233.362 669.498 233.68C669.973 233.998 670.532 234.167 671.104 234.167C671.484 234.169 671.861 234.096 672.213 233.951C672.564 233.807 672.884 233.594 673.153 233.325C673.422 233.056 673.635 232.737 673.779 232.385C673.924 232.033 673.997 231.656 673.995 231.276Z" stroke="#ABABAB" stroke-miterlimit="10"/>
<path d="M660.977 253.462C662.574 253.462 663.869 252.167 663.869 250.57C663.869 248.974 662.574 247.679 660.977 247.679C659.381 247.679 658.086 248.974 658.086 250.57C658.086 252.167 659.381 253.462 660.977 253.462Z" stroke="#ABABAB" stroke-miterlimit="10"/>
<path d="M671.104 253.462C672.701 253.462 673.995 252.167 673.995 250.57C673.995 248.974 672.701 247.679 671.104 247.679C669.507 247.679 668.213 248.974 668.213 250.57C668.213 252.167 669.507 253.462 671.104 253.462Z" stroke="#ABABAB" stroke-miterlimit="10"/>
<path d="M660.977 272.771C662.574 272.771 663.869 271.476 663.869 269.88C663.869 268.283 662.574 266.989 660.977 266.989C659.381 266.989 658.086 268.283 658.086 269.88C658.086 271.476 659.381 272.771 660.977 272.771Z" stroke="#ABABAB" stroke-miterlimit="10"/>
<path d="M671.104 272.771C672.701 272.771 673.995 271.476 673.995 269.88C673.995 268.283 672.701 266.989 671.104 266.989C669.507 266.989 668.213 268.283 668.213 269.88C668.213 271.476 669.507 272.771 671.104 272.771Z" stroke="#ABABAB" stroke-miterlimit="10"/>
<path d="M663.869 289.114C663.872 288.538 663.703 287.974 663.385 287.494C663.067 287.014 662.613 286.639 662.082 286.417C661.55 286.195 660.964 286.136 660.399 286.248C659.834 286.36 659.315 286.637 658.908 287.044C658.5 287.451 658.223 287.971 658.111 288.536C658 289.101 658.059 289.686 658.28 290.218C658.502 290.75 658.877 291.203 659.357 291.522C659.837 291.84 660.401 292.008 660.977 292.005C661.744 292.005 662.48 291.701 663.022 291.158C663.564 290.616 663.869 289.881 663.869 289.114V289.114Z" stroke="#ABABAB" stroke-miterlimit="10"/>
<path d="M673.995 289.114C673.974 288.547 673.788 287.999 673.458 287.537C673.128 287.076 672.669 286.722 672.14 286.519C671.61 286.316 671.032 286.274 670.478 286.397C669.925 286.52 669.419 286.803 669.025 287.211C668.631 287.619 668.366 288.134 668.263 288.692C668.16 289.25 668.223 289.826 668.444 290.348C668.666 290.87 669.036 291.316 669.509 291.629C669.982 291.942 670.537 292.11 671.104 292.11C671.493 292.112 671.879 292.036 672.238 291.885C672.596 291.734 672.921 291.511 673.191 291.231C673.461 290.951 673.672 290.619 673.81 290.255C673.948 289.891 674.011 289.503 673.995 289.114V289.114Z" stroke="#ABABAB" stroke-miterlimit="10"/>
<path d="M660.977 311.359C662.574 311.359 663.869 310.065 663.869 308.468C663.869 306.871 662.574 305.577 660.977 305.577C659.381 305.577 658.086 306.871 658.086 308.468C658.086 310.065 659.381 311.359 660.977 311.359Z" stroke="#ABABAB" stroke-miterlimit="10"/>
<path d="M671.104 311.359C672.701 311.359 673.995 310.065 673.995 308.468C673.995 306.871 672.701 305.577 671.104 305.577C669.507 305.577 668.213 306.871 668.213 308.468C668.213 310.065 669.507 311.359 671.104 311.359Z" stroke="#ABABAB" stroke-miterlimit="10"/>
<path d="M660.693 485.232C695.44 485.232 723.609 457.064 723.609 422.316C723.609 387.569 695.44 359.4 660.693 359.4C625.945 359.4 597.777 387.569 597.777 422.316C597.777 457.064 625.945 485.232 660.693 485.232Z" stroke="#ABABAB" stroke-miterlimit="10"/>
<path d="M660.693 485.232C676.412 485.232 689.155 457.064 689.155 422.316C689.155 387.569 676.412 359.4 660.693 359.4C644.974 359.4 632.231 387.569 632.231 422.316C632.231 457.064 644.974 485.232 660.693 485.232Z" stroke="#ABABAB" stroke-miterlimit="10"/>
<path d="M615.049 380.582H706.711" stroke="#ABABAB" stroke-miterlimit="10"/>
<path d="M615.049 464.32H706.711" stroke="#ABABAB" stroke-miterlimit="10"/>
<path d="M598.077 421.897H723.684" stroke="#ABABAB" stroke-miterlimit="10"/>
<path d="M120.05 609.686C128.728 609.686 135.764 591.236 135.764 568.476C135.764 545.716 128.728 527.266 120.05 527.266C111.371 527.266 104.336 545.716 104.336 568.476C104.336 591.236 111.371 609.686 120.05 609.686Z" fill="#00A896" stroke="#263238" stroke-miterlimit="10"/>
<path d="M168.86 543.101C173.774 527.64 172.305 513.373 165.58 511.235C158.854 509.098 149.418 519.899 144.505 535.361C139.591 550.823 141.06 565.09 147.786 567.227C154.511 569.365 163.947 558.563 168.86 543.101Z" fill="#00A896" stroke="#263238" stroke-miterlimit="10"/>
<path d="M53.5685 636.29C37.5698 633.579 25.5708 625.804 26.7393 618.779C27.9077 611.753 41.8541 608.368 57.8378 611.079C73.8214 613.79 85.8504 621.565 84.6669 628.591C83.4835 635.616 69.5671 639.002 53.5685 636.29Z" fill="#00A896" stroke="#263238" stroke-miterlimit="10"/>
<path d="M183.651 598.207C197.01 584.96 202.885 569.225 196.774 563.063C190.663 556.9 174.88 562.644 161.522 575.891C148.163 589.138 142.288 604.873 148.399 611.035C154.509 617.197 170.293 611.454 183.651 598.207Z" fill="#00A896" stroke="#263238" stroke-miterlimit="10"/>
<path d="M100.241 605.945C108.409 600.315 104.558 580.56 91.6403 561.821C78.7229 543.082 61.6305 532.455 53.4634 538.085C45.2963 543.715 49.1471 563.47 62.0645 582.209C74.9819 600.948 92.0742 611.575 100.241 605.945Z" fill="#00A896" stroke="#263238" stroke-miterlimit="10"/>
<path d="M121.143 607.649L122.372 664.303" stroke="#263238" stroke-miterlimit="10" stroke-linecap="round"/>
<path d="M119.69 553.151L121.143 607.649" stroke="#263238" stroke-miterlimit="10" stroke-linecap="round"/>
<path d="M119.795 544.268L119.69 548.448" stroke="#263238" stroke-miterlimit="10" stroke-linecap="round"/>
<path d="M100.141 603.305C109.158 621.916 114.431 642.117 115.661 662.76" stroke="#263238" stroke-miterlimit="10" stroke-linecap="round"/>
<path d="M73.1623 562.005C83.9403 574.516 93.0077 588.404 100.126 603.304" stroke="#263238" stroke-miterlimit="10" stroke-linecap="round"/>
<path d="M64.6686 553.032C64.6686 553.032 66.2865 554.53 68.9679 557.361" stroke="#263238" stroke-miterlimit="10" stroke-linecap="round"/>
<path d="M149.381 609.117C138.363 624.572 129.775 641.622 123.915 659.674" stroke="#263238" stroke-miterlimit="10" stroke-linecap="round"/>
<path d="M167.461 588.339C160.81 594.696 154.757 601.651 149.381 609.117" stroke="#263238" stroke-miterlimit="10" stroke-linecap="round"/>
<path d="M186.771 573.629C181.86 576.406 177.247 579.679 173.004 583.396" stroke="#263238" stroke-miterlimit="10" stroke-linecap="round"/>
<path d="M148.721 563.353C140.018 590.751 128.334 631.227 122.836 666.37" stroke="#263238" stroke-miterlimit="10" stroke-linecap="round"/>
<path d="M154.024 547.115C152.526 551.728 150.669 557.211 148.721 563.353" stroke="#263238" stroke-miterlimit="10" stroke-linecap="round"/>
<path d="M159.462 531.386C159.462 531.386 157.964 535.58 155.492 542.77" stroke="#263238" stroke-miterlimit="10" stroke-linecap="round"/>
<path d="M83.888 624.801C90.114 626.982 95.7561 630.563 100.379 635.27C105.002 639.976 108.483 645.681 110.552 651.945" stroke="#263238" stroke-miterlimit="10" stroke-linecap="round"/>
<path d="M63.7698 620.711C70.6433 621.055 77.4257 622.434 83.888 624.801" stroke="#263238" stroke-miterlimit="10" stroke-linecap="round"/>
<path d="M50.7522 621.041C50.7522 621.041 52.6846 620.756 55.8754 620.636" stroke="#263238" stroke-miterlimit="10" stroke-linecap="round"/>
<path d="M190.441 636.29C206.439 633.579 218.453 625.804 217.27 618.779C216.086 611.753 202.17 608.368 186.171 611.079C170.173 613.79 158.174 621.565 159.357 628.591C160.541 635.616 174.457 639.002 190.441 636.29Z" fill="#00A896" stroke="#263238" stroke-miterlimit="10"/>
<path d="M160.496 624.666C149.5 628.756 138.715 636.725 133.532 651.945" stroke="#263238" stroke-miterlimit="10" stroke-linecap="round"/>
<path d="M181.932 620.636C174.619 620.846 167.385 622.206 160.496 624.666" stroke="#263238" stroke-miterlimit="10" stroke-linecap="round"/>
<path d="M193.242 621.041C193.242 621.041 191.969 620.846 189.782 620.711" stroke="#263238" stroke-miterlimit="10" stroke-linecap="round"/>
<path d="M160.286 700.105C165.138 689.972 167.695 678.893 167.776 667.659C167.775 660.935 166.765 654.249 164.78 647.825H81.0268C79.0413 654.249 78.0314 660.935 78.0308 667.659C78.1113 678.893 80.6687 689.972 85.5208 700.105H160.286Z" fill="#263238"/>
<path d="M78.8847 657.098C78.645 658.596 78.4652 660.169 78.3304 661.741H167.431C167.297 660.169 167.117 658.626 166.877 657.098H78.8847Z" fill="#7A7A7A"/>
<path d="M166.488 680.796C166.772 679.298 167.012 677.71 167.192 676.152H78.5701C78.7499 677.65 78.9895 679.253 79.2742 680.796H166.488Z" fill="#7A7A7A"/>
<path d="M88.8763 667.913C88.8763 668.627 88.6646 669.325 88.2679 669.919C87.8712 670.513 87.3074 670.975 86.6477 671.249C85.988 671.522 85.2622 671.593 84.5618 671.454C83.8615 671.315 83.2183 670.971 82.7134 670.466C82.2085 669.961 81.8646 669.318 81.7253 668.618C81.586 667.917 81.6575 667.191 81.9308 666.532C82.204 665.872 82.6668 665.308 83.2604 664.911C83.8541 664.515 84.5521 664.303 85.2662 664.303C86.2236 664.303 87.1419 664.683 87.8189 665.36C88.496 666.037 88.8763 666.956 88.8763 667.913Z" fill="#8C8C8C"/>
<path d="M106.912 667.913C106.912 668.63 106.699 669.33 106.299 669.925C105.9 670.52 105.333 670.983 104.669 671.254C104.006 671.525 103.277 671.593 102.575 671.449C101.874 671.305 101.23 670.955 100.728 670.444C100.226 669.933 99.8866 669.284 99.7541 668.58C99.6217 667.876 99.7018 667.148 99.9842 666.49C100.267 665.831 100.739 665.272 101.34 664.882C101.942 664.493 102.646 664.291 103.362 664.303C104.309 664.319 105.212 664.706 105.876 665.381C106.54 666.057 106.912 666.966 106.912 667.913Z" fill="#8C8C8C"/>
<path d="M124.948 667.913C124.948 668.627 124.736 669.325 124.34 669.919C123.943 670.513 123.379 670.975 122.72 671.249C122.06 671.522 121.334 671.593 120.634 671.454C119.933 671.315 119.29 670.971 118.785 670.466C118.28 669.961 117.936 669.318 117.797 668.618C117.658 667.917 117.729 667.191 118.003 666.532C118.276 665.872 118.739 665.308 119.332 664.911C119.926 664.515 120.624 664.303 121.338 664.303C122.295 664.303 123.214 664.683 123.891 665.36C124.568 666.037 124.948 666.956 124.948 667.913Z" fill="#8C8C8C"/>
<path d="M142.969 667.913C142.969 668.628 142.757 669.326 142.36 669.92C141.962 670.514 141.398 670.977 140.737 671.25C140.076 671.523 139.35 671.593 138.649 671.453C137.948 671.312 137.305 670.967 136.801 670.461C136.297 669.954 135.954 669.31 135.816 668.608C135.679 667.907 135.752 667.181 136.028 666.521C136.303 665.862 136.768 665.299 137.364 664.904C137.96 664.509 138.659 664.3 139.374 664.303C140.329 664.307 141.243 664.689 141.917 665.366C142.591 666.042 142.969 666.958 142.969 667.913Z" fill="#8C8C8C"/>
<path d="M161.005 667.913C161.005 668.627 160.793 669.325 160.397 669.919C160 670.513 159.436 670.975 158.776 671.249C158.117 671.522 157.391 671.593 156.691 671.454C155.99 671.315 155.347 670.971 154.842 670.466C154.337 669.961 153.993 669.318 153.854 668.618C153.715 667.917 153.786 667.191 154.059 666.532C154.333 665.872 154.795 665.308 155.389 664.911C155.983 664.515 156.681 664.303 157.395 664.303C158.352 664.303 159.271 664.683 159.948 665.36C160.625 666.037 161.005 666.956 161.005 667.913Z" fill="#8C8C8C"/>
<path d="M247.05 413.014H620.876C625.938 413.014 630.792 415.024 634.371 418.603C637.95 422.182 639.961 427.037 639.961 432.098V680.422H228.011V432.083C228.015 427.032 230.021 422.188 233.59 418.614C237.159 415.039 241.999 413.025 247.05 413.014Z" fill="#263238" stroke="#263238" stroke-linecap="round" stroke-linejoin="round"/>
<path d="M576.475 667.554H293.338V681.5H576.475V667.554Z" fill="#263238" stroke="#263238" stroke-linecap="round" stroke-linejoin="round"/>
<path d="M576.475 674.265H293.338V681.5H576.475V674.265Z" fill="white" stroke="#263238" stroke-linecap="round" stroke-linejoin="round"/>
<path d="M194.65 689.769C194.65 689.769 199.294 695.446 213.255 700.105H656.558C656.558 700.105 666.88 697.514 671.538 690.278L194.65 689.769Z" fill="#263238" stroke="#263238" stroke-linecap="round" stroke-linejoin="round"/>
<path d="M667.104 690.443H199.144C198.431 690.445 197.724 690.306 197.064 690.035C196.405 689.763 195.805 689.364 195.3 688.86C194.795 688.356 194.394 687.758 194.121 687.099C193.847 686.44 193.706 685.734 193.706 685.02C193.706 683.578 194.279 682.195 195.299 681.175C196.319 680.156 197.702 679.583 199.144 679.583H667.104C668.545 679.587 669.926 680.161 670.945 681.18C671.964 682.199 672.538 683.579 672.542 685.02C672.538 686.46 671.963 687.839 670.944 688.856C669.925 689.872 668.544 690.443 667.104 690.443Z" fill="white" stroke="#263238" stroke-linecap="round" stroke-linejoin="round"/>
<path d="M437.491 421.103C437.494 420.385 437.284 419.683 436.887 419.085C436.491 418.487 435.926 418.02 435.263 417.743C434.601 417.466 433.872 417.392 433.168 417.53C432.464 417.669 431.816 418.013 431.308 418.519C430.799 419.025 430.452 419.671 430.311 420.375C430.17 421.079 430.241 421.808 430.515 422.472C430.789 423.135 431.254 423.702 431.85 424.101C432.447 424.5 433.148 424.713 433.866 424.713C434.825 424.713 435.744 424.333 436.424 423.656C437.103 422.98 437.487 422.062 437.491 421.103Z" fill="#949494"/>
<path d="M231.845 488.258C231.571 488.258 231.308 488.149 231.115 487.955C230.921 487.762 230.812 487.499 230.812 487.225V457.265C230.812 456.99 230.921 456.727 231.115 456.534C231.308 456.34 231.571 456.231 231.845 456.231C232.12 456.231 232.382 456.34 232.576 456.534C232.77 456.727 232.879 456.99 232.879 457.265V487.225C232.881 487.361 232.856 487.496 232.804 487.622C232.753 487.749 232.677 487.863 232.581 487.96C232.484 488.056 232.37 488.132 232.243 488.184C232.117 488.235 231.982 488.26 231.845 488.258Z" fill="#263238" stroke="white" stroke-width="0.691688" stroke-linejoin="round"/>
<path d="M623.243 433.896H244.683V647.825H623.243V433.896Z" fill="white" stroke="#263238" stroke-linecap="round" stroke-linejoin="round"/>
<path d="M327.837 596.743H418.586" stroke="#263238" stroke-linecap="round" stroke-linejoin="round"/>
<path d="M327.837 609.192H418.586" stroke="#263238" stroke-linecap="round" stroke-linejoin="round"/>
<path d="M327.837 621.655H418.586" stroke="#263238" stroke-linecap="round" stroke-linejoin="round"/>
<path d="M327.837 634.103H418.586" stroke="#263238" stroke-linecap="round" stroke-linejoin="round"/>
<path d="M524.959 593.912H431.903V637.01H524.959V593.912Z" fill="white" stroke="#263238" stroke-linecap="round" stroke-linejoin="round"/>
<path d="M524.959 618.869L509.275 606.151L484.303 622.314L472.544 613.985L431.903 637.009H524.959V618.869Z" fill="white" stroke="#263238" stroke-linecap="round" stroke-linejoin="round"/>
<path d="M446.344 613.506C449.728 613.506 452.471 610.763 452.471 607.379C452.471 603.995 449.728 601.252 446.344 601.252C442.96 601.252 440.217 603.995 440.217 607.379C440.217 610.763 442.96 613.506 446.344 613.506Z" fill="white" stroke="#263238" stroke-linecap="round" stroke-linejoin="round"/>
<path d="M623.243 433.896H244.683V581.164H623.243V433.896Z" fill="white" stroke="#263238" stroke-linecap="round" stroke-linejoin="round"/>
<path d="M623.243 433.896H244.683V450.074H623.243V433.896Z" fill="#949494" stroke="#263238" stroke-linecap="round" stroke-linejoin="round"/>
<path d="M623.228 449.52H611.049V647.84H623.228V449.52Z" fill="#949494" stroke="#263238" stroke-linecap="round" stroke-linejoin="round"/>
<path d="M623.228 483.659H611.049V542.621H623.228V483.659Z" fill="#696969" stroke="#263238" stroke-linecap="round" stroke-linejoin="round"/>
<path d="M251.215 576.385L352.15 514.743L460.38 574.333L541.722 507.343L610.75 566.813" stroke="#263238" stroke-miterlimit="10"/>
<path d="M308.019 541.512L326.1 536.449L339.851 545.841L355.76 535.73L368.778 542.231L377.466 535.73L391.053 536.194" stroke="#263238" stroke-miterlimit="10"/>
<path d="M510.548 533.558L528.629 541.512L539.475 529.932L551.039 539.34L564.072 527.041" stroke="#263238" stroke-miterlimit="10"/>
<path d="M284.41 505.29H353.813C353.813 505.29 353.813 501.081 351.7 499.508C351.269 499.221 350.786 499.022 350.277 498.924C348.322 498.537 346.479 497.717 344.882 496.525C343.285 495.333 341.976 493.798 341.05 492.033C340.475 490.819 339.612 489.764 338.536 488.96C337.461 488.156 336.205 487.627 334.878 487.419C326.474 485.846 327.523 493.202 322.789 493.726C318.055 494.25 314.895 484.738 307.015 484.738C299.136 484.738 296.529 497.366 296.529 497.366C296.529 497.366 291.271 491.584 286.537 497.89C281.804 504.197 284.41 505.29 284.41 505.29Z" fill="white" stroke="#263238" stroke-miterlimit="10"/>
<path d="M432.547 505.29H464.934C464.934 505.29 464.934 503.328 463.946 502.594C463.746 502.461 463.522 502.369 463.286 502.324C462.372 502.144 461.51 501.761 460.764 501.204C460.017 500.647 459.405 499.929 458.972 499.104C458.705 498.537 458.303 498.045 457.801 497.669C457.3 497.293 456.715 497.045 456.096 496.947C452.171 496.212 452.666 499.643 450.449 499.943C448.232 500.242 446.779 495.763 443.093 495.763C439.408 495.763 438.18 501.665 438.18 501.665C437.897 501.307 437.532 501.022 437.116 500.834C436.7 500.645 436.245 500.559 435.789 500.583C435.333 500.606 434.889 500.738 434.494 500.968C434.1 501.198 433.766 501.52 433.521 501.905C431.319 504.826 432.547 505.29 432.547 505.29Z" fill="white" stroke="#263238" stroke-miterlimit="10"/>
<path d="M258.884 505.29H291.271C291.271 505.29 291.271 503.328 290.282 502.594C290.083 502.461 289.859 502.369 289.623 502.324C288.709 502.144 287.847 501.761 287.1 501.204C286.354 500.647 285.742 499.929 285.309 499.104C285.041 498.537 284.639 498.045 284.138 497.669C283.637 497.293 283.052 497.045 282.433 496.947C278.508 496.212 279.003 499.643 276.785 499.943C274.568 500.242 273.115 495.763 269.43 495.763C265.745 495.763 264.517 501.665 264.517 501.665C264.234 501.307 263.869 501.022 263.453 500.834C263.037 500.645 262.582 500.559 262.126 500.583C261.67 500.606 261.226 500.738 260.831 500.968C260.437 501.198 260.103 501.52 259.858 501.905C257.656 504.826 258.884 505.29 258.884 505.29Z" fill="white" stroke="#263238" stroke-miterlimit="10"/>
<path d="M521.454 528.15C521.454 546.86 516.346 562.035 510.054 562.035C503.762 562.035 498.654 546.86 498.654 528.15C498.654 509.44 503.762 475.9 510.054 475.9C516.346 475.9 521.454 509.44 521.454 528.15Z" fill="#00A896" stroke="#263238" stroke-miterlimit="10"/>
<path d="M508.226 580.475L509.59 499.134L512.331 581.164L508.226 580.475Z" fill="#263238"/>
<path d="M413.628 541.752C413.628 555.668 409.823 566.933 405.149 566.933C400.475 566.933 396.67 555.668 396.67 541.752C396.67 527.835 400.475 502.909 405.149 502.909C409.823 502.909 413.628 527.835 413.628 541.752Z" fill="#00A896" stroke="#263238" stroke-miterlimit="10"/>
<path d="M403.786 580.655L404.805 520.18L406.842 581.164L403.786 580.655Z" fill="#263238"/>
<path d="M599.5 541.752C599.5 555.668 595.71 566.933 591.036 566.933C586.362 566.933 582.557 555.668 582.557 541.752C582.557 527.835 586.347 502.909 591.036 502.909C595.725 502.909 599.5 527.835 599.5 541.752Z" fill="#00A896" stroke="#263238" stroke-miterlimit="10"/>
<path d="M589.673 580.655L590.691 520.18L592.714 581.164L589.673 580.655Z" fill="#263238"/>
<path d="M623.243 449.52H244.683V467.391H623.243V449.52Z" fill="#00A896" stroke="#263238" stroke-miterlimit="10"/>
<path d="M289.399 467.765V449.61" stroke="#263238" stroke-miterlimit="10"/>
<path d="M337.469 467.765V449.61" stroke="#263238" stroke-miterlimit="10"/>
<path d="M385.555 467.765V449.61" stroke="#263238" stroke-miterlimit="10"/>
<path d="M433.626 467.765V449.61" stroke="#263238" stroke-miterlimit="10"/>
<path d="M481.712 467.765V449.61" stroke="#263238" stroke-miterlimit="10"/>
<path d="M529.798 467.765V449.61" stroke="#263238" stroke-miterlimit="10"/>
<path d="M577.868 467.765V449.61" stroke="#263238" stroke-miterlimit="10"/>
<path d="M410.782 437.191H272.966V444.666H410.782V437.191Z" fill="white" stroke="#263238" stroke-linecap="round" stroke-linejoin="round"/>
<path d="M590.002 440.921C590.002 441.514 589.827 442.093 589.497 442.586C589.168 443.079 588.7 443.462 588.153 443.689C587.605 443.916 587.003 443.975 586.422 443.86C585.841 443.744 585.307 443.459 584.888 443.04C584.469 442.621 584.183 442.087 584.068 441.506C583.952 440.925 584.012 440.322 584.238 439.775C584.465 439.227 584.849 438.759 585.342 438.43C585.834 438.101 586.414 437.925 587.006 437.925C587.801 437.925 588.563 438.241 589.125 438.803C589.687 439.365 590.002 440.127 590.002 440.921Z" fill="white" stroke="#263238" stroke-linecap="round" stroke-linejoin="round"/>
<path d="M602.9 440.921C602.9 441.514 602.724 442.093 602.395 442.586C602.066 443.079 601.598 443.462 601.051 443.689C600.503 443.916 599.901 443.975 599.32 443.86C598.738 443.744 598.205 443.459 597.786 443.04C597.367 442.621 597.081 442.087 596.966 441.506C596.85 440.925 596.909 440.322 597.136 439.775C597.363 439.227 597.747 438.759 598.24 438.43C598.732 438.101 599.311 437.925 599.904 437.925C600.699 437.925 601.461 438.241 602.023 438.803C602.584 439.365 602.9 440.127 602.9 440.921Z" fill="white" stroke="#263238" stroke-linecap="round" stroke-linejoin="round"/>
<path d="M615.798 440.921C615.798 441.514 615.622 442.093 615.293 442.586C614.964 443.079 614.496 443.462 613.948 443.689C613.401 443.916 612.799 443.975 612.217 443.86C611.636 443.744 611.102 443.459 610.683 443.04C610.264 442.621 609.979 442.087 609.863 441.506C609.748 440.925 609.807 440.322 610.034 439.775C610.261 439.227 610.645 438.759 611.137 438.43C611.63 438.101 612.209 437.925 612.802 437.925C613.596 437.925 614.358 438.241 614.92 438.803C615.482 439.365 615.798 440.127 615.798 440.921Z" fill="white" stroke="#263238" stroke-linecap="round" stroke-linejoin="round"/>
<path d="M528.255 306.146V291.571L511.597 289.818C510.882 287.161 509.845 284.6 508.511 282.193L519.132 269.071L508.826 258.779L495.808 269.265C493.424 267.897 490.884 266.82 488.243 266.06L486.475 249.282H471.87L470.117 265.925C467.456 266.636 464.895 267.678 462.493 269.026L449.37 258.39L439.064 268.696L449.55 281.714C448.18 284.071 447.104 286.586 446.344 289.204L429.551 290.972V305.547L446.209 307.3C446.925 309.957 447.961 312.518 449.295 314.925L438.674 328.032L448.966 338.338L461.983 327.852C464.369 329.227 466.915 330.304 469.563 331.058L471.331 347.851H485.891L487.644 331.208C490.303 330.49 492.864 329.449 495.269 328.107L508.391 338.728L518.683 328.436L508.197 315.419C509.572 313.033 510.648 310.487 511.402 307.839L528.255 306.146ZM478.956 321.755C474.377 321.758 469.901 320.404 466.093 317.862C462.285 315.321 459.317 311.707 457.563 307.479C455.808 303.25 455.348 298.596 456.239 294.105C457.131 289.615 459.334 285.49 462.57 282.251C465.806 279.013 469.93 276.807 474.42 275.913C478.91 275.019 483.564 275.476 487.794 277.228C492.024 278.979 495.639 281.945 498.183 285.752C500.727 289.558 502.085 294.033 502.085 298.611C502.085 304.747 499.648 310.631 495.311 314.971C490.974 319.311 485.091 321.751 478.956 321.755Z" fill="#263238"/>
<path d="M585.508 257.012V246.271L573.225 244.968C572.694 243.011 571.93 241.125 570.948 239.35L578.782 229.673L571.187 222.079L561.585 229.853C559.826 228.839 557.95 228.044 555.998 227.486L554.694 215.098H543.954L542.651 227.381C540.693 227.912 538.807 228.677 537.033 229.658L527.296 221.824L519.806 229.419L527.581 239.021C526.561 240.777 525.766 242.654 525.214 244.608L512.825 245.912V256.652L525.109 257.956C525.598 259.937 526.333 261.849 527.296 263.648L519.461 273.325L527.056 280.92L536.659 273.145C538.415 274.165 540.292 274.96 542.246 275.512L543.549 287.901H554.29L555.593 275.617C557.55 275.086 559.437 274.322 561.211 273.34L570.888 281.175L578.483 273.58L570.738 263.903C571.757 262.146 572.553 260.269 573.105 258.315L585.508 257.012ZM549.137 268.531C545.759 268.531 542.458 267.53 539.649 265.653C536.841 263.777 534.652 261.11 533.36 257.989C532.067 254.869 531.729 251.435 532.388 248.123C533.047 244.81 534.673 241.767 537.061 239.379C539.45 236.991 542.493 235.364 545.805 234.705C549.118 234.046 552.552 234.384 555.672 235.677C558.792 236.97 561.46 239.158 563.336 241.967C565.212 244.775 566.214 248.077 566.214 251.454C566.216 253.697 565.776 255.919 564.918 257.992C564.061 260.065 562.803 261.948 561.217 263.534C559.63 265.12 557.747 266.378 555.674 267.236C553.602 268.093 551.38 268.533 549.137 268.531Z" fill="#263238"/>
<path d="M417.178 187.475H419.425" stroke="#263238" stroke-miterlimit="10"/>
<path d="M423.859 187.475H492.423" stroke="#263238" stroke-miterlimit="10" stroke-dasharray="2.95 2.95"/>
<path d="M494.64 187.46H496.887V189.707" stroke="#263238" stroke-miterlimit="10"/>
<path d="M496.887 194.395V257.611" stroke="#263238" stroke-miterlimit="10" stroke-dasharray="3.13 3.13"/>
<path d="M496.887 259.963V262.21" stroke="#263238" stroke-miterlimit="10"/>
<path d="M496.887 350.292V352.539" stroke="#263238" stroke-miterlimit="10"/>
<path d="M496.887 357.603V385.54" stroke="#263238" stroke-miterlimit="10" stroke-dasharray="3.39 3.39"/>
<path d="M496.887 388.072V390.319" stroke="#263238" stroke-miterlimit="10"/>
<path d="M497.006 406.033L512.046 379.983H481.967L497.006 406.033Z" fill="#263238"/>
<path d="M407.815 88.382H158.758V389.225H407.815V88.382Z" fill="#263238"/>
<path d="M407.815 88.382H158.758V105.339H407.815V88.382Z" fill="#263238"/>
<path opacity="0.3" d="M407.815 88.382H158.758V105.339H407.815V88.382Z" fill="white"/>
<path d="M187.34 112.485H162.338V287.451H187.34V112.485Z" fill="#263238"/>
<path opacity="0.3" d="M187.34 112.485H162.338V287.451H187.34V112.485Z" fill="white"/>
<path opacity="0.3" d="M404.849 107.152H389.495V385.99H404.849V107.152Z" fill="white"/>
<path d="M356.135 121.068H204.657V339.267H356.135V121.068Z" fill="white"/>
<path d="M356.135 121.068H204.657V191.355H356.135V121.068Z" fill="white" stroke="#263238" stroke-miterlimit="10"/>
<path d="M356.135 186.022H204.657V191.355H356.135V186.022Z" fill="#263238"/>
<path d="M226.842 204.477H262.195" stroke="#263238" stroke-miterlimit="10"/>
<path d="M226.842 213.165H262.195" stroke="#263238" stroke-miterlimit="10"/>
<path d="M226.842 221.854H262.195" stroke="#263238" stroke-miterlimit="10"/>
<path d="M226.842 230.527H262.195" stroke="#263238" stroke-miterlimit="10"/>
<path d="M226.842 239.216H262.195" stroke="#263238" stroke-miterlimit="10"/>
<path d="M226.842 247.889H262.195" stroke="#263238" stroke-miterlimit="10"/>
<path d="M226.842 256.577H262.195" stroke="#263238" stroke-miterlimit="10"/>
<path d="M226.842 265.266H262.195" stroke="#263238" stroke-miterlimit="10"/>
<path d="M220.835 309.262H256.203" stroke="#263238" stroke-miterlimit="10"/>
<path d="M220.835 317.936H256.203" stroke="#263238" stroke-miterlimit="10"/>
<path d="M220.835 326.624H256.203" stroke="#263238" stroke-miterlimit="10"/>
<path d="M262.719 309.262H298.087" stroke="#263238" stroke-miterlimit="10"/>
<path d="M262.719 317.936H298.087" stroke="#263238" stroke-miterlimit="10"/>
<path d="M262.719 326.624H298.087" stroke="#263238" stroke-miterlimit="10"/>
<path d="M304.603 309.262H339.971" stroke="#263238" stroke-miterlimit="10"/>
<path d="M304.603 317.936H339.971" stroke="#263238" stroke-miterlimit="10"/>
<path d="M304.603 326.624H339.971" stroke="#263238" stroke-miterlimit="10"/>
<path d="M356.135 121.068H204.657V126.911H356.135V121.068Z" fill="#00A896" stroke="#263238" stroke-miterlimit="10"/>
<path d="M224.131 121.548V126.596" stroke="#263238" stroke-miterlimit="10"/>
<path d="M242.736 121.548V126.596" stroke="#263238" stroke-miterlimit="10"/>
<path d="M261.326 121.548V126.596" stroke="#263238" stroke-miterlimit="10"/>
<path d="M279.931 121.548V126.596" stroke="#263238" stroke-miterlimit="10"/>
<path d="M298.536 121.548V126.596" stroke="#263238" stroke-miterlimit="10"/>
<path d="M317.142 121.548V126.596" stroke="#263238" stroke-miterlimit="10"/>
<path d="M335.747 121.548V126.596" stroke="#263238" stroke-miterlimit="10"/>
<path d="M204.657 186.022L356.135 126.911" stroke="#263238" stroke-miterlimit="10"/>
<path d="M204.657 126.911L356.135 186.022" stroke="#263238" stroke-miterlimit="10"/>
<path d="M321.89 198.081H267.168V227.396H321.89V198.081Z" fill="white" stroke="#263238" stroke-miterlimit="10"/>
<path d="M321.89 231.007H267.168V260.322H321.89V231.007Z" fill="white" stroke="#263238" stroke-miterlimit="10"/>
<path d="M321.89 263.918H267.168V293.234H321.89V263.918Z" fill="white" stroke="#263238" stroke-miterlimit="10"/>
<path d="M267.168 198.081L321.875 227.396" stroke="#263238" stroke-miterlimit="10"/>
<path d="M321.875 198.081L267.168 227.396" stroke="#263238" stroke-miterlimit="10"/>
<path d="M267.168 231.007L321.875 260.307" stroke="#263238" stroke-miterlimit="10"/>
<path d="M321.875 231.007L267.168 260.307" stroke="#263238" stroke-miterlimit="10"/>
<path d="M267.168 263.918L321.875 293.234" stroke="#263238" stroke-miterlimit="10"/>
<path d="M321.875 263.918L267.168 293.234" stroke="#263238" stroke-miterlimit="10"/>
<path d="M394.079 159.627H332.481V214.079H394.079V159.627Z" fill="#263238"/>
<path opacity="0.3" d="M372.478 159.627V165.904H332.481V214.079H394.079V159.627H372.478Z" fill="white"/>
<path opacity="0.18" d="M372.463 159.627H332.481V165.904H372.463V159.627Z" fill="white"/>
<path d="M341.259 169.169H334.683V175.745H341.259V169.169Z" fill="white"/>
<path d="M348.45 169.169H341.874V175.745H348.45V169.169Z" fill="#263238"/>
<path d="M355.64 169.169H349.064V175.745H355.64V169.169Z" fill="white"/>
<path d="M362.816 169.169H356.239V175.745H362.816V169.169Z" fill="#263238"/>
<path d="M370.006 169.169H363.43V175.745H370.006V169.169Z" fill="white"/>
<path d="M377.196 169.169H370.62V175.745H377.196V169.169Z" fill="#00A896"/>
<path d="M384.372 169.169H377.796V175.745H384.372V169.169Z" fill="white"/>
<path d="M341.259 176.479H334.683V183.056H341.259V176.479Z" fill="white"/>
<path d="M348.45 176.479H341.874V183.056H348.45V176.479Z" fill="#00A896"/>
<path d="M355.64 176.479H349.064V183.056H355.64V176.479Z" fill="white"/>
<path d="M362.816 176.479H356.239V183.056H362.816V176.479Z" fill="#00A896"/>
<path d="M370.006 176.479H363.43V183.056H370.006V176.479Z" fill="white"/>
<path d="M377.196 176.479H370.62V183.056H377.196V176.479Z" fill="white"/>
<path d="M384.372 176.479H377.796V183.056H384.372V176.479Z" fill="white"/>
<path d="M341.259 183.79H334.683V190.366H341.259V183.79Z" fill="#263238"/>
<path d="M348.45 183.79H341.874V190.366H348.45V183.79Z" fill="white"/>
<path d="M355.64 183.79H349.064V190.366H355.64V183.79Z" fill="#263238"/>
<path d="M362.816 183.79H356.239V190.366H362.816V183.79Z" fill="white"/>
<path d="M370.006 183.79H363.43V190.366H370.006V183.79Z" fill="#00A896"/>
<path d="M377.196 183.79H370.62V190.366H377.196V183.79Z" fill="white"/>
<path d="M384.372 183.79H377.796V190.366H384.372V183.79Z" fill="#263238"/>
<path d="M341.259 191.085H334.683V197.661H341.259V191.085Z" fill="white"/>
<path d="M348.45 191.085H341.874V197.661H348.45V191.085Z" fill="#263238"/>
<path d="M355.64 191.085H349.064V197.661H355.64V191.085Z" fill="white"/>
<path d="M362.816 191.085H356.239V197.661H362.816V191.085Z" fill="#00A896"/>
<path d="M370.006 191.085H363.43V197.661H370.006V191.085Z" fill="white"/>
<path d="M377.196 191.085H370.62V197.661H377.196V191.085Z" fill="#263238"/>
<path d="M384.372 191.085H377.796V197.661H384.372V191.085Z" fill="white"/>
<path d="M341.259 198.395H334.683V204.971H341.259V198.395Z" fill="#263238"/>
<path d="M348.45 198.395H341.874V204.971H348.45V198.395Z" fill="white"/>
<path d="M355.64 198.395H349.064V204.971H355.64V198.395Z" fill="white"/>
<path d="M362.816 198.395H356.239V204.971H362.816V198.395Z" fill="white"/>
<path d="M370.006 198.395H363.43V204.971H370.006V198.395Z" fill="white"/>
<path d="M377.196 198.395H370.62V204.971H377.196V198.395Z" fill="white"/>
<path d="M384.372 198.395H377.796V204.971H384.372V198.395Z" fill="#00A896"/>
<path d="M392.701 169.094H388.162V205.541H392.701V169.094Z" fill="#263238"/>
<path d="M151.298 187.475H149.051" stroke="#263238" stroke-miterlimit="10"/>
<path d="M144.767 187.475H112.68" stroke="#263238" stroke-miterlimit="10" stroke-dasharray="2.86 2.86"/>
<path d="M110.537 187.46H108.29V185.213" stroke="#263238" stroke-miterlimit="10"/>
<path d="M108.29 180.674V164.795" stroke="#263238" stroke-miterlimit="10" stroke-dasharray="3.03 3.03"/>
<path d="M108.29 162.518V160.271" stroke="#263238" stroke-miterlimit="10"/>
<path d="M153.875 186.965L127.824 171.925V202.005L153.875 186.965Z" fill="#263238"/>
<path d="M109.654 137.397H51.4713V59.8301H102.403L109.654 70.1663V137.397Z" fill="white" stroke="#263238" stroke-linecap="round" stroke-linejoin="round"/>
<path d="M102.403 59.8301V71.0801H109.654L102.403 59.8301Z" fill="white" stroke="#263238" stroke-linecap="round" stroke-linejoin="round"/>
<path d="M60.3994 82.0305H101.04" stroke="#263238" stroke-linecap="round" stroke-linejoin="round"/>
<path d="M60.3994 92.9958H101.04" stroke="#263238" stroke-linecap="round" stroke-linejoin="round"/>
<path d="M60.3994 103.946H101.04" stroke="#263238" stroke-linecap="round" stroke-linejoin="round"/>
<path d="M60.3994 114.912H101.04" stroke="#263238" stroke-linecap="round" stroke-linejoin="round"/>
<path d="M109.264 81.1167H77.7612V137.277H109.264V81.1167Z" fill="#263238" stroke="#263238" stroke-linecap="round" stroke-linejoin="round"/>
<path d="M142.055 155.208H83.888V77.6413H134.82L142.055 87.9775V155.208Z" fill="white" stroke="#263238" stroke-linecap="round" stroke-linejoin="round"/>
<path d="M134.82 77.6413V88.8913H142.055L134.82 77.6413Z" fill="white" stroke="#263238" stroke-linecap="round" stroke-linejoin="round"/>
<path d="M92.8161 99.8417H133.457" stroke="#263238" stroke-linecap="round" stroke-linejoin="round"/>
<path d="M92.8161 110.807H133.457" stroke="#263238" stroke-linecap="round" stroke-linejoin="round"/>
<path d="M92.8161 121.757H133.457" stroke="#263238" stroke-linecap="round" stroke-linejoin="round"/>
<path d="M92.8161 132.708H133.457" stroke="#263238" stroke-linecap="round" stroke-linejoin="round"/>
</svg>
