<svg width="751" height="751" viewBox="0 0 751 751" fill="none" xmlns="http://www.w3.org/2000/svg">
<path d="M676.801 329.148C679.91 287.783 670.283 244.556 657.395 205.984C638.245 148.833 601.055 90.12 538.437 76.602C502.389 68.7916 465.59 77.1578 434.634 96.7138C404.864 115.534 381.643 139.836 345.054 144.552C308.03 149.314 270.045 147.391 232.825 147.391C137.148 147.391 59.4942 247.92 78.9001 352.625C98.3059 457.329 189.838 529.861 267.491 529.861C337.259 529.861 394.666 488 460.949 476.75C493.813 471.177 526.812 477.771 559.345 469.42C597.135 459.717 632.688 436.556 653.625 403.017C667.909 380.246 674.849 355.058 676.801 329.148Z" fill="#00A896"/>
<path opacity="0.7" d="M676.801 329.148C679.91 287.783 670.283 244.556 657.395 205.984C638.245 148.833 601.055 90.12 538.437 76.602C502.389 68.7916 465.59 77.1578 434.634 96.7138C404.864 115.534 381.643 139.836 345.054 144.552C308.03 149.314 270.045 147.391 232.825 147.391C137.148 147.391 59.4942 247.92 78.9001 352.625C98.3059 457.329 189.838 529.861 267.491 529.861C337.259 529.861 394.666 488 460.949 476.75C493.813 471.177 526.812 477.771 559.345 469.42C597.135 459.717 632.688 436.556 653.625 403.017C667.909 380.246 674.849 355.058 676.801 329.148Z" fill="white"/>
<path d="M147.286 411.833C147.286 411.833 154.315 406.276 156.118 402.716C157.62 399.712 158.761 395.401 157.169 392.202C156.828 391.434 156.33 390.747 155.707 390.183C155.084 389.62 154.349 389.193 153.551 388.932C152.752 388.67 151.908 388.578 151.072 388.663C150.236 388.748 149.427 389.007 148.698 389.424C144.372 392.127 143.922 401.289 145.018 405.705C145.033 406.096 147.196 411.878 147.286 411.833Z" fill="#00A896"/>
<path d="M82.3246 458.11C82.625 458.38 87.6267 462.015 87.6567 461.925C87.6867 461.835 90.4504 453.424 89.9998 449.458C89.5943 446.079 88.1674 441.948 85.0582 440.071C84.3441 439.615 83.5416 439.315 82.7033 439.191C81.8651 439.067 81.01 439.121 80.1944 439.351C79.3787 439.581 78.6209 439.981 77.9707 440.524C77.3205 441.067 76.7926 441.742 76.4217 442.504C74.3039 447.07 78.9751 454.986 82.3246 458.11Z" fill="#00A896"/>
<path d="M229.551 420.23C229.551 420.23 203.821 446.785 204.017 479.393C204.212 512.002 230.106 538.347 230.106 538.347C230.106 538.347 255.821 511.791 255.64 479.168C255.46 446.545 229.551 420.23 229.551 420.23Z" fill="#00A896"/>
<path d="M192.872 498.934C193.211 498.568 193.523 498.176 193.803 497.763C195.681 494.924 197.273 490.794 196.071 487.399C195.824 486.586 195.408 485.834 194.849 485.193C194.291 484.553 193.603 484.038 192.83 483.683C192.058 483.328 191.219 483.141 190.37 483.135C189.52 483.128 188.678 483.301 187.9 483.644C184.416 485.281 182.688 490.884 182.328 495.465C180.931 495.149 179.669 494.909 178.603 494.729L177.206 491.59C176.695 490.508 176.335 489.412 175.899 488.315C175.283 486.678 174.728 484.966 174.172 483.269C176.2 482.352 182.133 479.589 184.34 477.14C186.548 474.692 188.846 470.787 188.141 467.242C188.013 466.405 187.711 465.605 187.253 464.893C186.795 464.181 186.191 463.574 185.482 463.112C184.773 462.65 183.974 462.343 183.138 462.21C182.302 462.078 181.448 462.124 180.631 462.346C175.749 463.848 172.88 472.529 172.775 477.08C172.775 477.23 172.775 478.192 172.955 479.333C172.46 477.651 171.964 475.969 171.453 474.257C170.207 469.36 169.08 464.358 167.924 459.342C167.683 458.29 167.428 457.254 167.188 456.202C168.9 455.451 175.343 452.508 177.702 449.939C180.06 447.371 182.208 443.586 181.517 440.041C181.39 439.204 181.087 438.404 180.629 437.692C180.171 436.98 179.567 436.373 178.858 435.911C178.149 435.449 177.35 435.141 176.514 435.009C175.678 434.877 174.824 434.923 174.007 435.144C169.125 436.646 166.256 445.328 166.151 449.879C166.151 450.044 166.256 451.186 166.362 452.478C165.701 449.759 165.01 447.055 164.229 444.397C162.937 439.827 161.337 435.351 159.437 430.999C160.038 430.729 167.668 427.439 170.237 424.585C172.52 422.077 174.743 418.232 174.052 414.687C173.925 413.85 173.622 413.05 173.164 412.338C172.706 411.626 172.102 411.019 171.393 410.557C170.684 410.095 169.886 409.788 169.049 409.655C168.213 409.523 167.359 409.569 166.542 409.791C161.66 411.293 158.791 419.974 158.686 424.525C158.686 424.841 159.062 429.031 159.242 430.533C159.248 430.478 159.248 430.423 159.242 430.368C157.271 426.139 154.929 422.093 152.243 418.277C149.831 414.883 147.224 411.633 144.432 408.544C141.909 405.63 139.401 403.107 137.178 400.899C135.961 399.712 134.82 398.646 133.753 397.67H133.858C133.963 397.67 131.485 391.992 131.29 391.662C129.007 387.726 122.278 381.463 117.306 382.544C116.483 382.744 115.711 383.116 115.042 383.635C114.372 384.154 113.82 384.809 113.422 385.556C113.023 386.304 112.787 387.127 112.729 387.972C112.671 388.817 112.793 389.665 113.086 390.46C114.197 393.884 117.982 396.183 121.196 397.294C124.411 398.406 131.71 397.88 133.453 397.73C134.549 398.766 135.691 399.892 136.937 401.169C139.115 403.422 141.548 405.976 144.012 408.95C144.673 409.731 145.349 410.602 146.009 411.443C144.598 410.271 142.63 408.679 142.42 408.544C138.575 406.111 129.728 403.648 125.808 406.907C125.162 407.463 124.641 408.151 124.282 408.923C123.922 409.696 123.731 410.537 123.721 411.389C123.711 412.242 123.882 413.086 124.224 413.867C124.566 414.648 125.07 415.348 125.702 415.919C128.271 418.442 132.687 418.743 136.051 418.247C139.416 417.751 145.814 413.816 147.181 412.945C148.683 414.822 150.095 416.775 151.477 418.953C154.048 422.779 156.274 426.825 158.131 431.044C158.236 431.284 158.311 431.555 158.416 431.795C157.815 431.104 154.24 427.484 153.91 427.289C150.365 424.45 141.894 421.026 137.583 423.834C136.887 424.318 136.301 424.943 135.864 425.668C135.427 426.394 135.148 427.204 135.045 428.045C134.943 428.887 135.02 429.74 135.271 430.549C135.522 431.358 135.942 432.105 136.502 432.741C138.77 435.52 143.126 436.316 146.52 436.181C150.44 436.046 158.146 432.155 158.446 432.005C160.173 436.263 161.623 440.628 162.787 445.073C163.673 448.362 164.424 451.727 165.145 455.106C164.349 454.22 161.014 450.855 160.759 450.6C157.199 447.746 148.743 444.337 144.417 447.13C143.721 447.614 143.135 448.239 142.698 448.964C142.261 449.69 141.982 450.5 141.88 451.341C141.777 452.183 141.854 453.036 142.105 453.845C142.356 454.654 142.776 455.401 143.336 456.037C145.604 458.831 149.975 459.612 153.369 459.492C157.184 459.357 164.589 455.662 165.205 455.346C165.535 456.848 165.881 458.35 166.196 459.957C167.233 464.989 168.254 470.051 169.411 474.977C169.816 476.705 170.267 478.372 170.732 480.054C169.471 478.762 167.158 476.419 166.947 476.254C163.388 473.4 154.931 469.976 150.606 472.785C149.91 473.268 149.324 473.893 148.886 474.619C148.449 475.344 148.17 476.154 148.068 476.996C147.966 477.837 148.043 478.69 148.294 479.499C148.545 480.309 148.964 481.056 149.524 481.691C151.792 484.485 156.163 485.266 159.557 485.146C162.952 485.026 169.26 482.052 171.018 481.181C171.784 483.974 172.625 486.738 173.556 489.412C173.992 490.553 174.367 491.74 174.848 492.821L175.554 494.534L174.577 494.428C174.577 494.428 174.502 496.02 174.577 498.619C170.837 495.945 165.445 493.647 161.931 495.269C161.17 495.642 160.497 496.171 159.955 496.822C159.413 497.472 159.015 498.23 158.786 499.046C158.558 499.861 158.505 500.716 158.63 501.554C158.755 502.391 159.056 503.193 159.512 503.906C159.746 504.285 160.007 504.647 160.293 504.987C160.959 508.931 162.624 512.639 165.13 515.757C165.325 515.982 167.864 518.325 169.2 519.497C167.909 518.806 166.632 518.115 165.31 517.364C163.403 516.313 161.42 515.126 159.482 513.999L156.478 512.107C155.457 511.476 154.556 510.77 153.58 510.094C152.168 509.073 150.756 507.946 149.359 506.835C150.545 504.957 153.97 499.325 154.451 496.126C154.931 492.926 154.691 488.345 152.183 485.762C151.619 485.123 150.925 484.611 150.149 484.26C149.372 483.909 148.529 483.728 147.677 483.728C146.824 483.728 145.982 483.909 145.205 484.26C144.428 484.611 143.734 485.123 143.171 485.762C139.896 489.667 142.33 498.529 144.673 502.389C144.673 502.509 145.349 503.275 146.07 504.161C144.733 503.035 143.381 501.908 142.059 500.722C138.319 497.342 134.549 493.783 130.884 490.208L128.541 488C129.563 486.498 133.318 480.49 133.828 477.005C134.339 473.521 134.054 469.225 131.545 466.656C130.981 466.017 130.288 465.505 129.511 465.154C128.734 464.804 127.892 464.622 127.039 464.622C126.187 464.622 125.344 464.804 124.567 465.154C123.79 465.505 123.097 466.017 122.533 466.656C119.259 470.562 121.677 479.423 124.035 483.269C124.035 483.404 124.831 484.32 125.642 485.326C123.585 483.419 121.512 481.556 119.409 479.769C115.802 476.671 111.994 473.816 108.009 471.222C108.369 470.682 112.905 463.712 113.476 459.927C113.987 456.563 113.716 452.147 111.193 449.579C110.629 448.939 109.936 448.427 109.159 448.077C108.382 447.726 107.539 447.545 106.687 447.545C105.835 447.545 104.992 447.726 104.215 448.077C103.438 448.427 102.745 448.939 102.181 449.579C98.9067 453.484 101.34 462.346 103.758 466.191C103.923 466.461 106.537 469.72 107.513 470.862L107.378 470.757C103.393 468.321 99.2012 466.24 94.8513 464.539C90.9818 462.995 87.0246 461.681 83.0005 460.603C79.2756 459.567 75.7909 458.846 72.7268 458.23C71.0446 457.915 69.5126 457.659 68.0857 457.419H68.1758C68.1758 457.419 63.054 453.995 62.6935 453.814C58.6231 451.787 49.566 450.285 46.0063 453.919C45.4285 454.54 44.9886 455.276 44.7155 456.078C44.4424 456.881 44.3423 457.732 44.4217 458.577C44.5011 459.421 44.7584 460.239 45.1764 460.976C45.5945 461.714 46.164 462.355 46.8474 462.856C49.6711 465.094 54.087 464.929 57.3614 464.088C60.6357 463.247 66.3734 458.786 67.8754 457.674C69.3774 457.945 70.8794 458.245 72.6818 458.621C75.6858 459.297 79.1854 460.123 82.8804 461.204L85.8844 462.18C84.0519 461.985 81.5436 461.76 81.2882 461.76C76.7822 461.85 68.0106 464.674 66.5236 469.555C66.3023 470.37 66.2552 471.223 66.3855 472.057C66.5157 472.891 66.8204 473.688 67.2796 474.397C67.7388 475.106 68.3422 475.71 69.0504 476.169C69.7587 476.629 70.5559 476.934 71.3901 477.065C74.9198 477.741 78.7799 475.563 81.3033 473.295C83.8266 471.027 87.0109 464.208 87.6717 462.781C89.9097 463.547 92.1777 464.388 94.5359 465.395C98.7949 467.163 102.887 469.309 106.762 471.808C106.987 471.958 107.198 472.139 107.423 472.274C106.522 472.034 101.55 470.982 101.19 470.952C96.6837 470.532 87.6717 472.454 85.6591 477.08C85.3604 477.894 85.2415 478.763 85.3104 479.627C85.3793 480.491 85.6344 481.331 86.0582 482.087C86.482 482.843 87.0645 483.499 87.7656 484.009C88.4667 484.519 89.2699 484.871 90.12 485.041C93.5596 486.107 97.63 484.365 100.394 482.382C103.578 480.114 107.904 472.619 108.024 472.334C111.817 474.927 115.434 477.767 118.853 480.835C121.407 483.088 123.885 485.476 126.363 487.895C125.192 487.594 120.566 486.633 120.235 486.603C115.729 486.182 106.717 488.03 104.704 492.716C104.391 493.502 104.247 494.345 104.282 495.19C104.317 496.035 104.53 496.863 104.907 497.62C105.284 498.378 105.817 499.047 106.471 499.584C107.124 500.121 107.884 500.514 108.7 500.737C112.139 501.818 116.21 500.061 118.973 498.093C122.083 495.87 126.213 488.706 126.483 488.09C127.61 489.201 128.736 490.283 129.848 491.394C133.498 495.029 137.133 498.679 140.843 502.179C142.119 503.38 143.426 504.522 144.733 505.678C142.975 505.288 139.761 504.612 139.476 504.597C134.97 504.176 125.958 506.024 123.945 510.71C123.632 511.497 123.489 512.341 123.524 513.187C123.56 514.033 123.775 514.861 124.153 515.619C124.532 516.376 125.066 517.045 125.722 517.581C126.377 518.117 127.138 518.509 127.955 518.731C131.38 519.812 135.465 518.055 138.214 516.087C140.963 514.12 144.598 508.157 145.604 506.459C147.782 508.367 149.99 510.199 152.258 511.912C153.249 512.633 154.21 513.414 155.262 514.044L158.191 516.012C160.233 517.274 162.126 518.46 164.063 519.587L166.917 521.224C165.19 520.563 162.411 519.542 162.186 519.482C157.77 518.37 148.668 518.851 145.904 523.177C145.478 523.909 145.211 524.724 145.122 525.568C145.033 526.411 145.123 527.263 145.387 528.069C145.651 528.875 146.082 529.616 146.653 530.243C147.224 530.87 147.921 531.37 148.698 531.708C151.927 533.285 156.208 532.174 159.212 530.642C162.546 528.959 167.578 522.726 168.224 521.96C170.552 523.297 172.85 524.573 175.013 525.73C180.781 528.809 185.812 531.272 189.733 533.12C202.425 544.1 220.313 545.301 220.313 545.301C220.313 545.301 221.245 523.898 208.643 509.794C204.245 505.063 198.861 501.355 192.872 498.934ZM170.192 519.812C170.582 518.941 173.631 512.137 173.841 508.292C174.547 508.172 175.253 508.021 175.944 507.856C177.235 514.619 179.921 521.039 183.83 526.706C181.532 525.61 179.023 524.393 176.32 523.041C174.397 522.05 172.309 520.954 170.192 519.812Z" fill="#00A896"/>
<path d="M286.567 494.834C286.567 494.834 265.133 495.495 252.021 509.118C238.908 522.741 239.073 544.175 239.073 544.175C239.073 544.175 260.492 543.514 273.619 529.891C286.747 516.267 286.567 494.834 286.567 494.834Z" fill="#00A896"/>
<g opacity="0.5">
<path d="M147.286 411.833C147.286 411.833 154.315 406.276 156.118 402.716C157.62 399.712 158.761 395.401 157.169 392.202C156.828 391.434 156.33 390.747 155.707 390.183C155.084 389.62 154.349 389.193 153.551 388.932C152.752 388.67 151.908 388.578 151.072 388.663C150.236 388.748 149.427 389.007 148.698 389.424C144.372 392.127 143.922 401.289 145.018 405.705C145.033 406.096 147.196 411.878 147.286 411.833Z" fill="white"/>
<path d="M82.3246 458.11C82.625 458.38 87.6267 462.015 87.6567 461.925C87.6867 461.835 90.4504 453.424 89.9998 449.458C89.5943 446.079 88.1674 441.948 85.0582 440.071C84.3441 439.615 83.5416 439.315 82.7033 439.191C81.8651 439.067 81.01 439.121 80.1944 439.351C79.3787 439.581 78.6209 439.981 77.9707 440.524C77.3205 441.067 76.7926 441.742 76.4217 442.504C74.3039 447.07 78.9751 454.986 82.3246 458.11Z" fill="white"/>
<path d="M229.551 420.23C229.551 420.23 203.821 446.785 204.017 479.393C204.212 512.002 230.106 538.347 230.106 538.347C230.106 538.347 255.821 511.791 255.64 479.168C255.46 446.545 229.551 420.23 229.551 420.23Z" fill="white"/>
<path d="M192.872 498.934C193.211 498.568 193.523 498.176 193.803 497.763C195.681 494.924 197.273 490.794 196.071 487.399C195.824 486.586 195.408 485.834 194.849 485.193C194.291 484.553 193.603 484.038 192.83 483.683C192.058 483.328 191.219 483.141 190.37 483.135C189.52 483.128 188.678 483.301 187.9 483.644C184.416 485.281 182.688 490.884 182.328 495.465C180.931 495.149 179.669 494.909 178.603 494.729L177.206 491.59C176.695 490.508 176.335 489.412 175.899 488.315C175.283 486.678 174.728 484.966 174.172 483.269C176.2 482.352 182.133 479.589 184.34 477.14C186.548 474.692 188.846 470.787 188.141 467.242C188.013 466.405 187.711 465.605 187.253 464.893C186.795 464.181 186.191 463.574 185.482 463.112C184.773 462.65 183.974 462.343 183.138 462.21C182.302 462.078 181.448 462.124 180.631 462.346C175.749 463.848 172.88 472.529 172.775 477.08C172.775 477.23 172.775 478.192 172.955 479.333C172.46 477.651 171.964 475.969 171.453 474.257C170.207 469.36 169.08 464.358 167.924 459.342C167.683 458.29 167.428 457.254 167.188 456.202C168.9 455.451 175.343 452.508 177.702 449.939C180.06 447.371 182.208 443.586 181.517 440.041C181.39 439.204 181.087 438.404 180.629 437.692C180.171 436.98 179.567 436.373 178.858 435.911C178.149 435.449 177.35 435.141 176.514 435.009C175.678 434.877 174.824 434.923 174.007 435.144C169.125 436.646 166.256 445.328 166.151 449.879C166.151 450.044 166.256 451.186 166.362 452.478C165.701 449.759 165.01 447.055 164.229 444.397C162.937 439.827 161.337 435.351 159.437 430.999C160.038 430.729 167.668 427.439 170.237 424.585C172.52 422.077 174.743 418.232 174.052 414.687C173.925 413.85 173.622 413.05 173.164 412.338C172.706 411.626 172.102 411.019 171.393 410.557C170.684 410.095 169.886 409.788 169.049 409.655C168.213 409.523 167.359 409.569 166.542 409.791C161.66 411.293 158.791 419.974 158.686 424.525C158.686 424.841 159.062 429.031 159.242 430.533C159.248 430.478 159.248 430.423 159.242 430.368C157.271 426.139 154.929 422.093 152.243 418.277C149.831 414.883 147.224 411.633 144.432 408.544C141.909 405.63 139.401 403.107 137.178 400.899C135.961 399.712 134.82 398.646 133.753 397.67H133.858C133.963 397.67 131.485 391.992 131.29 391.662C129.007 387.726 122.278 381.463 117.306 382.544C116.483 382.744 115.711 383.116 115.042 383.635C114.372 384.154 113.82 384.809 113.422 385.556C113.023 386.304 112.787 387.127 112.729 387.972C112.671 388.817 112.793 389.665 113.086 390.46C114.197 393.884 117.982 396.183 121.196 397.294C124.411 398.406 131.71 397.88 133.453 397.73C134.549 398.766 135.691 399.892 136.937 401.169C139.115 403.422 141.548 405.976 144.012 408.95C144.673 409.731 145.349 410.602 146.009 411.443C144.598 410.271 142.63 408.679 142.42 408.544C138.575 406.111 129.728 403.648 125.808 406.907C125.162 407.463 124.641 408.151 124.282 408.923C123.922 409.696 123.731 410.537 123.721 411.389C123.711 412.242 123.882 413.086 124.224 413.867C124.566 414.648 125.07 415.348 125.702 415.919C128.271 418.442 132.687 418.743 136.051 418.247C139.416 417.751 145.814 413.816 147.181 412.945C148.683 414.822 150.095 416.775 151.477 418.953C154.048 422.779 156.274 426.825 158.131 431.044C158.236 431.284 158.311 431.555 158.416 431.795C157.815 431.104 154.24 427.484 153.91 427.289C150.365 424.45 141.894 421.026 137.583 423.834C136.887 424.318 136.301 424.943 135.864 425.668C135.427 426.394 135.148 427.204 135.045 428.045C134.943 428.887 135.02 429.74 135.271 430.549C135.522 431.358 135.942 432.105 136.502 432.741C138.77 435.52 143.126 436.316 146.52 436.181C150.44 436.046 158.146 432.155 158.446 432.005C160.173 436.263 161.623 440.628 162.787 445.073C163.673 448.362 164.424 451.727 165.145 455.106C164.349 454.22 161.014 450.855 160.759 450.6C157.199 447.746 148.743 444.337 144.417 447.13C143.721 447.614 143.135 448.239 142.698 448.964C142.261 449.69 141.982 450.5 141.88 451.341C141.777 452.183 141.854 453.036 142.105 453.845C142.356 454.654 142.776 455.401 143.336 456.037C145.604 458.831 149.975 459.612 153.369 459.492C157.184 459.357 164.589 455.662 165.205 455.346C165.535 456.848 165.881 458.35 166.196 459.957C167.233 464.989 168.254 470.051 169.411 474.977C169.816 476.705 170.267 478.372 170.732 480.054C169.471 478.762 167.158 476.419 166.947 476.254C163.388 473.4 154.931 469.976 150.606 472.785C149.91 473.268 149.324 473.893 148.886 474.619C148.449 475.344 148.17 476.154 148.068 476.996C147.966 477.837 148.043 478.69 148.294 479.499C148.545 480.309 148.964 481.056 149.524 481.691C151.792 484.485 156.163 485.266 159.557 485.146C162.952 485.026 169.26 482.052 171.018 481.181C171.784 483.974 172.625 486.738 173.556 489.412C173.992 490.553 174.367 491.74 174.848 492.821L175.554 494.534L174.577 494.428C174.577 494.428 174.502 496.02 174.577 498.619C170.837 495.945 165.445 493.647 161.931 495.269C161.17 495.642 160.497 496.171 159.955 496.822C159.413 497.472 159.015 498.23 158.786 499.046C158.558 499.861 158.505 500.716 158.63 501.554C158.755 502.391 159.056 503.193 159.512 503.906C159.746 504.285 160.007 504.647 160.293 504.987C160.959 508.931 162.624 512.639 165.13 515.757C165.325 515.982 167.864 518.325 169.2 519.497C167.909 518.806 166.632 518.115 165.31 517.364C163.403 516.313 161.42 515.126 159.482 513.999L156.478 512.107C155.457 511.476 154.556 510.77 153.58 510.094C152.168 509.073 150.756 507.946 149.359 506.835C150.545 504.957 153.97 499.325 154.451 496.126C154.931 492.926 154.691 488.345 152.183 485.762C151.619 485.123 150.925 484.611 150.149 484.26C149.372 483.909 148.529 483.728 147.677 483.728C146.824 483.728 145.982 483.909 145.205 484.26C144.428 484.611 143.734 485.123 143.171 485.762C139.896 489.667 142.33 498.529 144.673 502.389C144.673 502.509 145.349 503.275 146.07 504.161C144.733 503.035 143.381 501.908 142.059 500.722C138.319 497.342 134.549 493.783 130.884 490.208L128.541 488C129.563 486.498 133.318 480.49 133.828 477.005C134.339 473.521 134.054 469.225 131.545 466.656C130.981 466.017 130.288 465.505 129.511 465.154C128.734 464.804 127.892 464.622 127.039 464.622C126.187 464.622 125.344 464.804 124.567 465.154C123.79 465.505 123.097 466.017 122.533 466.656C119.259 470.562 121.677 479.423 124.035 483.269C124.035 483.404 124.831 484.32 125.642 485.326C123.585 483.419 121.512 481.556 119.409 479.769C115.802 476.671 111.994 473.816 108.009 471.222C108.369 470.682 112.905 463.712 113.476 459.927C113.987 456.563 113.716 452.147 111.193 449.579C110.629 448.939 109.936 448.427 109.159 448.077C108.382 447.726 107.539 447.545 106.687 447.545C105.835 447.545 104.992 447.726 104.215 448.077C103.438 448.427 102.745 448.939 102.181 449.579C98.9067 453.484 101.34 462.346 103.758 466.191C103.923 466.461 106.537 469.72 107.513 470.862L107.378 470.757C103.393 468.321 99.2012 466.24 94.8513 464.539C90.9818 462.995 87.0246 461.681 83.0005 460.603C79.2756 459.567 75.7909 458.846 72.7268 458.23C71.0446 457.915 69.5126 457.659 68.0857 457.419H68.1758C68.1758 457.419 63.054 453.995 62.6935 453.814C58.6231 451.787 49.566 450.285 46.0063 453.919C45.4285 454.54 44.9886 455.276 44.7155 456.078C44.4424 456.881 44.3423 457.732 44.4217 458.577C44.5011 459.421 44.7584 460.239 45.1764 460.976C45.5945 461.714 46.164 462.355 46.8474 462.856C49.6711 465.094 54.087 464.929 57.3614 464.088C60.6357 463.247 66.3734 458.786 67.8754 457.674C69.3774 457.945 70.8794 458.245 72.6818 458.621C75.6858 459.297 79.1854 460.123 82.8804 461.204L85.8844 462.18C84.0519 461.985 81.5436 461.76 81.2882 461.76C76.7822 461.85 68.0106 464.674 66.5236 469.555C66.3023 470.37 66.2552 471.223 66.3855 472.057C66.5157 472.891 66.8204 473.688 67.2796 474.397C67.7388 475.106 68.3422 475.71 69.0504 476.169C69.7587 476.629 70.5559 476.934 71.3901 477.065C74.9198 477.741 78.7799 475.563 81.3033 473.295C83.8266 471.027 87.0109 464.208 87.6717 462.781C89.9097 463.547 92.1777 464.388 94.5359 465.395C98.7949 467.163 102.887 469.309 106.762 471.808C106.987 471.958 107.198 472.139 107.423 472.274C106.522 472.034 101.55 470.982 101.19 470.952C96.6837 470.532 87.6717 472.454 85.6591 477.08C85.3604 477.894 85.2415 478.763 85.3104 479.627C85.3793 480.491 85.6344 481.331 86.0582 482.087C86.482 482.843 87.0645 483.499 87.7656 484.009C88.4667 484.519 89.2699 484.871 90.12 485.041C93.5596 486.107 97.63 484.365 100.394 482.382C103.578 480.114 107.904 472.619 108.024 472.334C111.817 474.927 115.434 477.767 118.853 480.835C121.407 483.088 123.885 485.476 126.363 487.895C125.192 487.594 120.566 486.633 120.235 486.603C115.729 486.182 106.717 488.03 104.704 492.716C104.391 493.502 104.247 494.345 104.282 495.19C104.317 496.035 104.53 496.863 104.907 497.62C105.284 498.378 105.817 499.047 106.471 499.584C107.124 500.121 107.884 500.514 108.7 500.737C112.139 501.818 116.21 500.061 118.973 498.093C122.083 495.87 126.213 488.706 126.483 488.09C127.61 489.201 128.736 490.283 129.848 491.394C133.498 495.029 137.133 498.679 140.843 502.179C142.119 503.38 143.426 504.522 144.733 505.678C142.975 505.288 139.761 504.612 139.476 504.597C134.97 504.176 125.958 506.024 123.945 510.71C123.632 511.497 123.489 512.341 123.524 513.187C123.56 514.033 123.775 514.861 124.153 515.619C124.532 516.376 125.066 517.045 125.722 517.581C126.377 518.117 127.138 518.509 127.955 518.731C131.38 519.812 135.465 518.055 138.214 516.087C140.963 514.12 144.598 508.157 145.604 506.459C147.782 508.367 149.99 510.199 152.258 511.912C153.249 512.633 154.21 513.414 155.262 514.044L158.191 516.012C160.233 517.274 162.126 518.46 164.063 519.587L166.917 521.224C165.19 520.563 162.411 519.542 162.186 519.482C157.77 518.37 148.668 518.851 145.904 523.177C145.478 523.909 145.211 524.724 145.122 525.568C145.033 526.411 145.123 527.263 145.387 528.069C145.651 528.875 146.082 529.616 146.653 530.243C147.224 530.87 147.921 531.37 148.698 531.708C151.927 533.285 156.208 532.174 159.212 530.642C162.546 528.959 167.578 522.726 168.224 521.96C170.552 523.297 172.85 524.573 175.013 525.73C180.781 528.809 185.812 531.272 189.733 533.12C202.425 544.1 220.313 545.301 220.313 545.301C220.313 545.301 221.245 523.898 208.643 509.794C204.245 505.063 198.861 501.355 192.872 498.934ZM170.192 519.812C170.582 518.941 173.631 512.137 173.841 508.292C174.547 508.172 175.253 508.021 175.944 507.856C177.235 514.619 179.921 521.039 183.83 526.706C181.532 525.61 179.023 524.393 176.32 523.041C174.397 522.05 172.309 520.954 170.192 519.812Z" fill="white"/>
<path d="M286.567 494.834C286.567 494.834 265.133 495.495 252.021 509.118C238.908 522.741 239.073 544.175 239.073 544.175C239.073 544.175 260.492 543.514 273.619 529.891C286.747 516.267 286.567 494.834 286.567 494.834Z" fill="white"/>
</g>
<path d="M230.602 508.637L251.645 489.712L250.744 488.721L230.602 506.835L230.482 482.037L230.602 482.112L248.401 456.082L247.274 455.331L230.482 479.889L230.227 420.23H228.875L229.04 460.738L215.642 449.143L214.771 450.164L229.055 462.526L229.175 491.484L208.868 473.505L207.982 474.527L229.19 493.287L229.295 519.647L214.035 507.676L213.209 508.742L229.31 521.374L229.385 538.347L230.737 538.332L230.602 508.622V508.637Z" fill="white"/>
<path d="M211.226 515.937L209.874 515.787L208.177 530.777L199.15 520.668H199.165L196.867 502.539L195.53 502.704L197.588 518.926L175.118 493.813L174.112 494.714L189.357 511.746L179.714 511.867L179.729 513.218L190.544 513.083L201.238 525.039L186.143 525.054L186.158 526.391L202.44 526.376L212.157 537.235L201.508 537.881L201.598 539.233L213.299 538.527L219.773 545.752L220.779 544.851L209.379 532.114L211.226 515.937Z" fill="white"/>
<path d="M262.069 521.284L279.988 517.649L279.718 516.313L263.691 519.572L287.047 495.3L286.086 494.368L270.225 510.83L269.384 501.217L268.047 501.338L268.993 512.122L257.878 523.672L256.722 508.622L255.385 508.727L256.617 524.979L246.508 535.478L245.081 524.919L243.745 525.099L245.322 536.71L238.593 543.709L239.554 544.64L251.405 532.324L267.687 532.955L267.732 531.603L252.667 531.032L262.069 521.269V521.284Z" fill="white"/>
<path d="M357.987 567.486C474.793 567.486 569.483 562.523 569.483 556.401C569.483 550.279 474.793 545.316 357.987 545.316C241.18 545.316 146.49 550.279 146.49 556.401C146.49 562.523 241.18 567.486 357.987 567.486Z" fill="#00A896"/>
<path opacity="0.5" d="M357.987 567.486C474.793 567.486 569.483 562.523 569.483 556.401C569.483 550.279 474.793 545.316 357.987 545.316C241.18 545.316 146.49 550.279 146.49 556.401C146.49 562.523 241.18 567.486 357.987 567.486Z" fill="white"/>
<path d="M409.175 507.135V471.538H304.335V507.135C304.335 518.746 289.135 526.992 280.484 537.911L274.971 544.881H438.584L433.072 537.911C424.375 526.992 409.175 518.746 409.175 507.135Z" fill="white" stroke="#263238" stroke-width="1.09543" stroke-linecap="round" stroke-linejoin="round"/>
<g style="mix-blend-mode:multiply">
<path d="M286.131 532.053H427.394C422.347 522.951 409.175 515.892 409.175 507.135V471.538H304.335V507.135C304.335 515.892 291.163 522.951 286.131 532.053Z" fill="#00A896"/>
</g>
<path d="M409.175 476.885H304.335V491.92H409.175V476.885Z" fill="#263238" stroke="#263238" stroke-width="1.09543" stroke-linecap="round" stroke-linejoin="round"/>
<path d="M553.502 166.722H160.023C152.317 166.722 146.07 172.969 146.07 180.676V468.804C146.07 476.511 152.317 482.758 160.023 482.758H553.502C561.208 482.758 567.456 476.511 567.456 468.804V180.676C567.456 172.969 561.208 166.722 553.502 166.722Z" fill="#263238" stroke="#263238" stroke-width="1.09543" stroke-linecap="round" stroke-linejoin="round"/>
<path d="M146.07 433.627H567.456V468.789C567.456 470.622 567.095 472.436 566.394 474.129C565.692 475.822 564.664 477.36 563.369 478.656C562.073 479.952 560.535 480.979 558.842 481.681C557.149 482.382 555.335 482.743 553.502 482.743H159.978C158.146 482.743 156.331 482.382 154.638 481.681C152.945 480.979 151.407 479.952 150.111 478.656C148.816 477.36 147.788 475.822 147.087 474.129C146.385 472.436 146.025 470.622 146.025 468.789V433.627H146.07Z" fill="white" stroke="#263238" stroke-width="1.09543" stroke-linecap="round" stroke-linejoin="round"/>
<path d="M546.247 201.403H167.263V424.675H546.247V201.403Z" fill="#263238" stroke="#263238" stroke-width="1.09543" stroke-linecap="round" stroke-linejoin="round"/>
<path opacity="0.6" d="M546.247 201.403H167.263V424.675H546.247V201.403Z" fill="white"/>
<path d="M364.536 458.2C364.539 456.661 364.085 455.155 363.232 453.873C362.379 452.592 361.164 451.592 359.743 451.001C358.322 450.41 356.757 450.254 355.247 450.552C353.736 450.851 352.349 451.591 351.259 452.678C350.169 453.766 349.427 455.152 349.125 456.662C348.824 458.171 348.977 459.737 349.566 461.159C350.154 462.582 351.151 463.798 352.431 464.653C353.711 465.509 355.216 465.965 356.755 465.965C358.816 465.965 360.793 465.148 362.251 463.692C363.71 462.236 364.532 460.261 364.536 458.2Z" fill="#263238" stroke="#263238" stroke-width="1.09543" stroke-linecap="round" stroke-linejoin="round"/>
<path d="M438.569 544.881H274.971V552.511H438.569V544.881Z" fill="white" stroke="#263238" stroke-width="1.09543" stroke-linecap="round" stroke-linejoin="round"/>
<path d="M368.29 357.476C362.913 352.444 345.76 345.715 336.748 345.911C327.736 346.106 328.352 344.844 319.01 336.778C309.667 328.713 297.877 330.77 283.337 339.782C268.798 348.794 264.337 347.052 259.591 342.261C254.844 337.469 247.259 341.855 232.555 355.178C217.85 368.501 216.393 366.488 208.778 363.484C205.128 362.057 199.12 367.99 193.863 374.449L164.995 448.317L185.137 456.172C188.997 454.791 193.127 452.808 195.485 450.164C200.772 444.156 195.05 441.918 198.144 432.14C201.238 422.362 212.848 428.34 225.45 414.897C231.684 408.244 234.177 400.193 242.588 396.092C250.489 392.232 260.342 391.586 265.614 383.566C270.886 375.545 279.642 375.83 290.983 378.789C302.323 381.748 314.279 384.963 322.344 375.62C330.41 366.278 333.159 362.958 350.071 362.943C366.984 362.928 373.668 362.553 368.29 357.476Z" fill="#00A896"/>
<path opacity="0.5" d="M368.29 357.476C362.913 352.444 345.76 345.715 336.748 345.911C327.736 346.106 328.352 344.844 319.01 336.778C309.667 328.713 297.877 330.77 283.337 339.782C268.798 348.794 264.337 347.052 259.591 342.261C254.844 337.469 247.259 341.855 232.555 355.178C217.85 368.501 216.393 366.488 208.778 363.484C205.128 362.057 199.12 367.99 193.863 374.449L164.995 448.317L185.137 456.172C188.997 454.791 193.127 452.808 195.485 450.164C200.772 444.156 195.05 441.918 198.144 432.14C201.238 422.362 212.848 428.34 225.45 414.897C231.684 408.244 234.177 400.193 242.588 396.092C250.489 392.232 260.342 391.586 265.614 383.566C270.886 375.545 279.642 375.83 290.983 378.789C302.323 381.748 314.279 384.963 322.344 375.62C330.41 366.278 333.159 362.958 350.071 362.943C366.984 362.928 373.668 362.553 368.29 357.476Z" fill="black"/>
<path d="M349.245 352.97C329.823 351.714 310.32 353.017 291.238 356.845L298.312 344.994C298.411 344.821 298.439 344.615 298.388 344.421C298.338 344.227 298.213 344.061 298.042 343.958C297.87 343.859 297.667 343.833 297.476 343.883C297.284 343.934 297.121 344.058 297.02 344.228L289.24 357.266C272.64 360.772 256.476 366.096 241.041 373.142L248.251 354.682C248.295 354.589 248.32 354.488 248.323 354.384C248.326 354.281 248.308 354.178 248.27 354.082C248.232 353.986 248.174 353.899 248.101 353.826C248.027 353.754 247.94 353.697 247.843 353.66C247.747 353.622 247.644 353.605 247.541 353.61C247.438 353.614 247.336 353.64 247.243 353.685C247.151 353.73 247.068 353.794 247.001 353.873C246.934 353.951 246.884 354.043 246.854 354.142L239.133 373.893C239.133 373.893 239.133 373.983 239.133 374.028C231.623 377.573 224.744 381.238 218.736 384.797C210.606 389.596 202.767 394.872 195.26 400.598L203.972 381.508C204.029 381.333 204.021 381.143 203.948 380.974C203.875 380.806 203.743 380.669 203.576 380.591C203.41 380.514 203.22 380.5 203.044 380.552C202.867 380.605 202.717 380.721 202.62 380.877L192.677 402.536C185.019 408.464 177.847 414.993 171.228 422.062C171.089 422.205 171.012 422.396 171.012 422.595C171.012 422.794 171.089 422.985 171.228 423.128C171.373 423.245 171.553 423.309 171.739 423.309C171.843 423.309 171.946 423.288 172.042 423.247C172.138 423.206 172.224 423.145 172.294 423.068C178.874 416.118 186.007 409.714 193.623 403.918L218.226 409.205H218.376C218.549 409.205 218.717 409.145 218.851 409.036C218.985 408.926 219.077 408.774 219.112 408.604C219.134 408.508 219.136 408.409 219.119 408.312C219.103 408.216 219.066 408.123 219.013 408.041C218.96 407.958 218.891 407.887 218.81 407.831C218.729 407.776 218.637 407.737 218.541 407.718L195.26 402.641C209.253 391.93 224.36 382.76 240.32 375.29L256.752 385.218C256.924 385.319 257.128 385.348 257.322 385.3C257.515 385.253 257.683 385.132 257.788 384.963C257.889 384.791 257.918 384.586 257.871 384.393C257.823 384.199 257.702 384.032 257.533 383.926L241.972 374.539C256.837 367.695 272.398 362.478 288.384 358.978C288.377 359.033 288.377 359.088 288.384 359.143C288.414 359.244 288.466 359.336 288.536 359.414C288.606 359.492 288.693 359.554 288.79 359.594L307.024 367.449C307.118 367.494 307.22 367.519 307.324 367.524C307.523 367.564 307.73 367.523 307.899 367.411C308.068 367.298 308.186 367.123 308.225 366.924C308.265 366.724 308.224 366.518 308.112 366.349C307.999 366.18 307.824 366.062 307.625 366.022L290.246 358.512C309.61 354.514 329.426 353.155 349.155 354.472C349.254 354.478 349.352 354.464 349.446 354.432C349.539 354.4 349.625 354.349 349.699 354.284C349.773 354.218 349.833 354.139 349.877 354.05C349.92 353.961 349.945 353.865 349.951 353.766C349.957 353.667 349.943 353.569 349.911 353.475C349.879 353.382 349.828 353.296 349.763 353.222C349.697 353.148 349.618 353.088 349.529 353.044C349.44 353.001 349.344 352.976 349.245 352.97Z" fill="white"/>
<path d="M327.511 280.018C331.041 286.491 333.219 304.831 330.785 313.392C328.352 321.954 329.719 321.788 335.156 332.918C340.594 344.048 335.697 354.893 323.321 366.698C310.944 378.504 311.5 383.22 314.954 389.063C318.409 394.906 312.251 401.079 295.624 412.029C278.997 422.978 280.604 424.826 281.58 433.057C282.031 436.947 274.851 441.273 267.221 444.742L188.471 454.085L185.918 432.621C188.231 429.227 191.19 425.727 194.389 424.105C201.538 420.5 202.259 426.628 212.533 426.087C222.807 425.547 219.923 412.81 236.099 404.008C244.105 399.637 252.516 399.247 258.629 392.142C264.337 385.458 267.506 376.101 276.533 373.022C285.801 369.852 287.558 361.381 287.543 349.666C287.528 337.95 287.438 325.559 298.508 320.121C309.577 314.684 313.528 312.822 317.748 296.465C321.969 280.108 323.981 273.544 327.511 280.018Z" fill="#00A896"/>
<path opacity="0.5" d="M327.511 280.018C331.041 286.491 333.219 304.831 330.785 313.392C328.352 321.954 329.719 321.788 335.156 332.918C340.594 344.048 335.697 354.893 323.321 366.698C310.944 378.504 311.5 383.22 314.954 389.063C318.409 394.906 312.251 401.079 295.624 412.029C278.997 422.978 280.604 424.826 281.58 433.057C282.031 436.947 274.851 441.273 267.221 444.742L188.471 454.085L185.918 432.621C188.231 429.227 191.19 425.727 194.389 424.105C201.538 420.5 202.259 426.628 212.533 426.087C222.807 425.547 219.923 412.81 236.099 404.008C244.105 399.637 252.516 399.247 258.629 392.142C264.337 385.458 267.506 376.101 276.533 373.022C285.801 369.852 287.558 361.381 287.543 349.666C287.528 337.95 287.438 325.559 298.508 320.121C309.577 314.684 313.528 312.822 317.748 296.465C321.969 280.108 323.981 273.544 327.511 280.018Z" fill="white"/>
<path d="M322.014 350.897L308.766 354.757C317.276 337.253 323.442 318.704 327.106 299.589C327.125 299.492 327.126 299.393 327.107 299.296C327.088 299.199 327.051 299.107 326.996 299.024C326.942 298.942 326.872 298.871 326.79 298.816C326.708 298.761 326.616 298.722 326.52 298.703C326.323 298.671 326.122 298.716 325.958 298.827C325.793 298.939 325.677 299.109 325.634 299.304C321.921 318.705 315.6 337.516 306.844 355.223L303.975 336.523C303.958 336.425 303.923 336.332 303.87 336.248C303.817 336.164 303.749 336.091 303.668 336.034C303.587 335.976 303.495 335.936 303.398 335.914C303.301 335.892 303.201 335.89 303.104 335.907C303.006 335.922 302.913 335.956 302.829 336.007C302.745 336.058 302.672 336.126 302.615 336.205C302.558 336.285 302.517 336.376 302.495 336.472C302.473 336.567 302.471 336.667 302.488 336.763L305.492 356.38C305.507 356.485 305.544 356.587 305.601 356.677C305.658 356.768 305.734 356.846 305.822 356.905C305.872 356.912 305.923 356.912 305.972 356.905C298.567 371.536 289.603 385.324 279.237 398.03L274.055 380.607C274.027 380.508 273.981 380.416 273.917 380.335C273.854 380.255 273.776 380.188 273.686 380.137C273.597 380.087 273.499 380.055 273.397 380.043C273.295 380.031 273.192 380.038 273.094 380.066C272.995 380.094 272.903 380.14 272.822 380.204C272.742 380.267 272.674 380.345 272.624 380.435C272.574 380.524 272.542 380.622 272.53 380.724C272.517 380.826 272.525 380.929 272.553 381.027L278.08 399.532C266.845 413.072 254.185 425.364 240.32 436.196L241.341 412.329C241.345 412.23 241.33 412.132 241.296 412.039C241.262 411.947 241.21 411.862 241.143 411.789C241.076 411.716 240.995 411.658 240.906 411.617C240.816 411.575 240.719 411.552 240.62 411.548C240.423 411.547 240.233 411.621 240.088 411.755C239.944 411.889 239.855 412.072 239.839 412.269L238.758 437.397C231.211 443.318 223.194 448.612 214.786 453.228C214.609 453.319 214.475 453.475 214.413 453.663C214.351 453.852 214.367 454.058 214.456 454.235C214.521 454.357 214.618 454.46 214.737 454.531C214.856 454.603 214.993 454.64 215.132 454.64C215.251 454.644 215.37 454.619 215.477 454.565C223.969 449.898 232.071 444.554 239.704 438.584L263.196 434.423C263.294 434.407 263.388 434.371 263.473 434.317C263.558 434.264 263.631 434.195 263.689 434.113C263.747 434.032 263.788 433.939 263.811 433.842C263.833 433.744 263.836 433.643 263.819 433.545C263.802 433.446 263.766 433.352 263.713 433.267C263.66 433.182 263.59 433.109 263.509 433.051C263.427 432.993 263.335 432.952 263.237 432.93C263.14 432.908 263.039 432.905 262.94 432.921L242.258 436.586C249.685 430.76 256.766 424.506 263.466 417.856C268.422 412.915 273.694 407.237 279.012 400.809H279.147L300.175 398.3C300.273 398.289 300.369 398.257 300.455 398.209C300.542 398.16 300.618 398.095 300.679 398.017C300.741 397.939 300.786 397.849 300.813 397.754C300.84 397.658 300.847 397.558 300.836 397.459C300.824 397.361 300.793 397.265 300.744 397.179C300.695 397.092 300.63 397.016 300.552 396.955C300.474 396.893 300.384 396.848 300.289 396.821C300.193 396.794 300.093 396.787 299.995 396.798L280.303 399.126C291.042 386.001 300.3 371.731 307.91 356.575L322.479 352.339C322.646 352.272 322.784 352.147 322.867 351.987C322.949 351.827 322.972 351.643 322.93 351.468C322.911 351.368 322.871 351.274 322.814 351.191C322.757 351.107 322.683 351.036 322.597 350.983C322.511 350.929 322.414 350.894 322.314 350.879C322.214 350.864 322.112 350.871 322.014 350.897Z" fill="white"/>
<path d="M359.849 216.288C350.011 212.353 323.471 212.353 311.665 217.279C299.859 222.206 299.874 220.283 283.127 214.275C266.38 208.267 251.675 217.279 236.926 236.895C222.176 256.512 215.297 256.557 206.45 252.621C197.603 248.686 189.733 258.524 176.966 284.073C164.199 309.622 161.225 307.67 149.434 307.67C143.802 307.67 138.845 318.649 135.195 330.2V444.141H166.256C170.762 440.281 175.268 435.46 176.966 430.623C180.886 419.809 172.039 419.809 171.063 405.089C170.087 390.37 188.756 392.307 198.594 367.735C203.446 355.568 202.59 343.492 211.707 333.609C220.253 324.312 233.065 318.214 235.949 304.801C238.953 291.043 250.699 287.122 267.401 285.155C284.103 283.187 301.812 281.219 307.715 264.502C313.618 247.785 315.57 241.897 338.19 233.05C360.81 224.204 369.672 220.283 359.849 216.288Z" fill="#00A896"/>
<path d="M333.039 221.034C332.977 220.845 332.842 220.688 332.665 220.598C332.487 220.508 332.281 220.492 332.092 220.554C305.233 229.087 279.626 241.148 255.941 256.421L259.32 236.129C259.34 236.032 259.339 235.932 259.318 235.836C259.297 235.739 259.256 235.648 259.199 235.567C259.141 235.487 259.067 235.42 258.982 235.369C258.897 235.318 258.803 235.286 258.705 235.273C258.608 235.256 258.508 235.259 258.413 235.28C258.317 235.302 258.226 235.343 258.147 235.401C258.067 235.458 257.999 235.531 257.948 235.615C257.897 235.699 257.863 235.792 257.848 235.889L254.244 257.533C233.604 271.064 214.541 286.857 197.408 304.621V275.332C197.404 275.134 197.324 274.945 197.184 274.805C197.044 274.665 196.855 274.584 196.657 274.581C196.458 274.581 196.267 274.66 196.126 274.801C195.985 274.941 195.906 275.132 195.906 275.332V305.807C195.883 305.906 195.883 306.009 195.906 306.108C187.585 314.819 180.345 323.336 174.127 331.281C165.504 342.307 157.554 353.843 150.32 365.827L152.123 334.405C152.127 334.208 152.057 334.016 151.926 333.868C151.795 333.721 151.613 333.628 151.417 333.609C151.219 333.605 151.028 333.675 150.88 333.806C150.732 333.937 150.64 334.119 150.621 334.315L148.698 368.576C141.497 380.473 135.264 392.93 130.058 405.825C129.991 406.013 130 406.219 130.085 406.399C130.169 406.58 130.322 406.719 130.509 406.787H130.764C130.92 406.791 131.072 406.745 131.199 406.656C131.327 406.567 131.422 406.439 131.47 406.291C136.635 393.505 142.818 381.154 149.96 369.357L186.008 363.529C186.203 363.492 186.377 363.381 186.492 363.218C186.607 363.056 186.654 362.855 186.624 362.658C186.609 362.561 186.575 362.467 186.524 362.383C186.473 362.3 186.405 362.227 186.325 362.169C186.246 362.112 186.155 362.071 186.059 362.049C185.963 362.027 185.864 362.025 185.767 362.042L151.026 367.675C158.42 355.323 166.576 343.444 175.449 332.107C181.727 324.087 189.072 315.48 197.513 306.663L225.075 311.425H225.21C225.386 311.427 225.557 311.366 225.692 311.253C225.827 311.14 225.917 310.983 225.946 310.809C225.977 310.612 225.93 310.411 225.815 310.248C225.7 310.086 225.526 309.974 225.33 309.938L198.775 305.432C215.452 288.19 233.955 272.814 253.958 259.576C253.947 259.672 253.956 259.77 253.984 259.863C254.013 259.956 254.06 260.042 254.123 260.116C254.192 260.198 254.277 260.264 254.373 260.31C254.469 260.357 254.573 260.383 254.679 260.387L283.217 261.363C283.416 261.363 283.607 261.284 283.748 261.143C283.889 261.002 283.968 260.811 283.968 260.612C283.968 260.413 283.889 260.222 283.748 260.081C283.607 259.94 283.416 259.861 283.217 259.861L255.565 258.915L255.64 258.464C279.526 242.904 305.404 230.642 332.573 222.011C332.764 221.943 332.92 221.802 333.007 221.619C333.095 221.436 333.106 221.226 333.039 221.034Z" fill="white"/>
<path d="M546.247 291.673C544.851 300.61 542.312 315.705 539.458 328.112C535.133 346.887 532.97 391.647 532.97 391.647C532.97 391.647 524.303 344.709 504.086 304.996C483.869 265.283 411.668 222.687 411.668 222.687C411.668 222.687 434.048 242.903 460.754 279.763C487.459 316.622 499.025 397.459 499.025 397.459C499.025 397.459 483.869 367.104 455.707 343.958C427.544 320.812 347.398 297.756 347.398 297.756C347.398 297.756 404.474 338.19 430.428 367.074C445.095 383.655 455.826 403.335 461.82 424.645H546.247V291.673Z" fill="#00A896"/>
<path opacity="0.46" d="M524.318 336.673H436.061V388.673H524.318V336.673Z" fill="white"/>
<path d="M444.592 381.884C447.081 381.884 449.098 379.866 449.098 377.378C449.098 374.889 447.081 372.872 444.592 372.872C442.103 372.872 440.086 374.889 440.086 377.378C440.086 379.866 442.103 381.884 444.592 381.884Z" fill="white"/>
<path d="M394.786 206.165H529.35C531.41 206.165 533.385 206.983 534.841 208.439C536.297 209.895 537.115 211.87 537.115 213.93V396.288H387.021V213.93C387.021 211.87 387.839 209.895 389.295 208.439C390.751 206.983 392.726 206.165 394.786 206.165Z" fill="white" stroke="#263238" stroke-linecap="round" stroke-linejoin="round"/>
<path d="M464.869 244.826H495.66" stroke="#CCCCCC" stroke-miterlimit="10"/>
<path d="M464.869 251.585H512.182" stroke="#CCCCCC" stroke-miterlimit="10"/>
<path opacity="0.11" d="M424.57 278.876H395.777V390.355H424.57V278.876Z" fill="black"/>
<path opacity="0.18" d="M424.57 278.876H414.056V390.355H424.57V278.876Z" fill="black"/>
<path d="M424.57 292.154H414.056V369.071H424.57V292.154Z" fill="#263238"/>
<path d="M529.35 206.165H394.786C393.766 206.163 392.755 206.362 391.812 206.752C390.869 207.141 390.012 207.713 389.29 208.435C388.569 209.156 387.997 210.013 387.608 210.956C387.218 211.899 387.019 212.91 387.021 213.93V229.806H537.115V213.93C537.117 212.91 536.918 211.899 536.528 210.956C536.139 210.013 535.567 209.156 534.845 208.435C534.124 207.713 533.267 207.141 532.324 206.752C531.381 206.362 530.37 206.163 529.35 206.165Z" fill="#263238" stroke="#263238" stroke-linecap="round" stroke-linejoin="round"/>
<path d="M399.036 220.794C401.525 220.794 403.542 218.777 403.542 216.288C403.542 213.799 401.525 211.782 399.036 211.782C396.548 211.782 394.53 213.799 394.53 216.288C394.53 218.777 396.548 220.794 399.036 220.794Z" fill="#00A896" stroke="#263238" stroke-linecap="round" stroke-linejoin="round"/>
<path d="M412.044 220.794C414.532 220.794 416.55 218.777 416.55 216.288C416.55 213.799 414.532 211.782 412.044 211.782C409.555 211.782 407.538 213.799 407.538 216.288C407.538 218.777 409.555 220.794 412.044 220.794Z" fill="white" stroke="#263238" stroke-linecap="round" stroke-linejoin="round"/>
<path d="M425.066 220.794C427.555 220.794 429.572 218.777 429.572 216.288C429.572 213.799 427.555 211.782 425.066 211.782C422.577 211.782 420.56 213.799 420.56 216.288C420.56 218.777 422.577 220.794 425.066 220.794Z" fill="white" stroke="#263238" stroke-linecap="round" stroke-linejoin="round"/>
<path d="M524.889 220.479H494.158C493.182 220.479 492.246 220.091 491.556 219.401C490.866 218.711 490.478 217.775 490.478 216.799C490.478 215.823 490.866 214.887 491.556 214.197C492.246 213.506 493.182 213.119 494.158 213.119H524.919C525.895 213.119 526.831 213.506 527.521 214.197C528.211 214.887 528.599 215.823 528.599 216.799C528.599 217.284 528.503 217.765 528.316 218.214C528.129 218.662 527.855 219.069 527.51 219.411C527.165 219.754 526.756 220.024 526.306 220.207C525.856 220.39 525.375 220.483 524.889 220.479Z" fill="white" stroke="#263238" stroke-linecap="round" stroke-linejoin="round"/>
<path d="M524.318 278.591H436.061V330.59H524.318V278.591Z" fill="#263238"/>
<path opacity="0.46" d="M524.318 278.591H436.061V330.59H524.318V278.591Z" fill="white"/>
<path d="M482.878 314.939C480.724 313.394 478.19 312.465 475.548 312.251C473.475 312.251 473.58 311.995 471.418 310.118C469.255 308.24 466.491 308.706 463.096 310.809C459.702 312.912 458.681 312.506 457.569 311.395C456.458 310.283 454.7 311.29 451.261 314.399C447.821 317.508 447.506 317.027 445.718 316.336C444.877 316.006 443.48 317.373 442.249 318.89L435.58 336.088L440.281 337.92C441.182 337.644 442.005 337.161 442.684 336.508C443.916 335.111 442.579 334.586 443.3 332.302C444.021 330.019 446.725 331.416 449.669 328.292C451.171 326.79 451.696 324.868 453.649 323.906C455.601 322.945 457.794 322.84 459.011 320.992C460.228 319.145 462.285 319.19 464.929 319.881C467.572 320.572 470.351 321.383 472.229 319.145C474.106 316.907 474.752 316.141 478.687 316.141C482.622 316.141 484.124 316.111 482.878 314.939Z" fill="#00A896"/>
<path opacity="0.5" d="M482.878 314.939C480.724 313.394 478.19 312.465 475.548 312.251C473.475 312.251 473.58 311.995 471.418 310.118C469.255 308.24 466.491 308.706 463.096 310.809C459.702 312.912 458.681 312.506 457.569 311.395C456.458 310.283 454.7 311.29 451.261 314.399C447.821 317.508 447.506 317.027 445.718 316.336C444.877 316.006 443.48 317.373 442.249 318.89L435.58 336.088L440.281 337.92C441.182 337.644 442.005 337.161 442.684 336.508C443.916 335.111 442.579 334.586 443.3 332.302C444.021 330.019 446.725 331.416 449.669 328.292C451.171 326.79 451.696 324.868 453.649 323.906C455.601 322.945 457.794 322.84 459.011 320.992C460.228 319.145 462.285 319.19 464.929 319.881C467.572 320.572 470.351 321.383 472.229 319.145C474.106 316.907 474.752 316.141 478.687 316.141C482.622 316.141 484.124 316.111 482.878 314.939Z" fill="black"/>
<path d="M478.432 313.918C473.906 313.62 469.36 313.923 464.914 314.819L466.566 312.056C466.593 312.021 466.607 311.979 466.607 311.935C466.607 311.892 466.593 311.85 466.566 311.815C466.533 311.786 466.49 311.769 466.446 311.769C466.402 311.769 466.359 311.786 466.326 311.815L464.508 314.819C460.643 315.639 456.88 316.883 453.288 318.529L454.971 314.218C454.985 314.175 454.983 314.127 454.963 314.085C454.944 314.043 454.909 314.01 454.865 313.993C454.822 313.978 454.774 313.981 454.732 314.001C454.69 314.02 454.657 314.055 454.64 314.098L452.838 318.694C451.08 319.52 449.488 320.377 448.091 321.203C446.196 322.318 444.371 323.547 442.624 324.883L444.652 320.377C444.662 320.357 444.668 320.335 444.67 320.313C444.672 320.291 444.669 320.269 444.662 320.248C444.655 320.227 444.644 320.208 444.629 320.191C444.615 320.174 444.597 320.161 444.577 320.151C444.555 320.141 444.532 320.136 444.508 320.135C444.484 320.134 444.46 320.138 444.438 320.146C444.415 320.154 444.395 320.167 444.378 320.184C444.36 320.2 444.346 320.22 444.336 320.241L442.023 325.288C440.231 326.645 438.558 328.153 437.022 329.794C437.003 329.808 436.988 329.826 436.978 329.847C436.967 329.868 436.962 329.891 436.962 329.914C436.962 329.938 436.967 329.961 436.978 329.981C436.988 330.002 437.003 330.02 437.022 330.034C437.056 330.046 437.093 330.046 437.127 330.034C437.148 330.045 437.171 330.051 437.194 330.051C437.218 330.051 437.241 330.045 437.262 330.034C438.791 328.397 440.454 326.89 442.234 325.528L447.956 326.76C447.993 326.749 448.026 326.726 448.049 326.695C448.073 326.664 448.085 326.626 448.085 326.587C448.085 326.549 448.073 326.511 448.049 326.48C448.026 326.449 447.993 326.426 447.956 326.415L442.519 325.243C445.78 322.742 449.306 320.606 453.033 318.875L456.848 321.188H456.938C456.968 321.188 456.996 321.182 457.023 321.169C457.049 321.156 457.071 321.136 457.088 321.113C457.105 321.097 457.118 321.079 457.127 321.058C457.136 321.037 457.14 321.015 457.14 320.992C457.14 320.97 457.136 320.948 457.127 320.927C457.118 320.906 457.105 320.888 457.088 320.872L453.469 318.679C456.939 317.09 460.57 315.877 464.298 315.06C464.316 315.112 464.354 315.155 464.403 315.18L468.654 316.997C468.689 316.999 468.724 316.991 468.754 316.972C468.783 316.953 468.806 316.925 468.819 316.892C468.835 316.85 468.834 316.804 468.818 316.762C468.801 316.72 468.769 316.686 468.729 316.667L464.674 314.924C469.18 313.987 473.793 313.664 478.387 313.963C478.424 313.952 478.457 313.929 478.48 313.898C478.503 313.867 478.516 313.829 478.516 313.79C478.516 313.752 478.503 313.714 478.48 313.683C478.457 313.651 478.424 313.629 478.387 313.618L478.432 313.918Z" fill="white"/>
<path d="M473.37 296.9C474.337 299.369 474.602 302.056 474.136 304.666C473.581 306.663 473.896 306.618 475.158 309.172C476.419 311.725 475.278 314.294 472.394 317.042C469.51 319.791 469.645 320.902 470.456 322.239C471.267 323.576 469.826 325.048 465.95 327.586C462.075 330.125 462.451 330.59 462.676 332.468C462.781 333.384 461.174 334.39 459.342 335.186L441.002 337.364L440.401 332.363C440.898 331.56 441.578 330.886 442.384 330.395C444.036 329.554 444.216 330.981 446.605 330.846C448.993 330.71 448.317 327.751 452.087 325.709C453.949 324.687 455.917 324.597 457.329 322.945C458.741 321.293 459.402 319.205 461.504 318.439C463.607 317.673 464.073 315.72 464.073 313.002C464.073 310.283 464.073 307.384 466.626 306.108C469.18 304.831 470.111 304.41 471.132 300.61C472.154 296.81 472.559 295.383 473.37 296.9Z" fill="#00A896"/>
<path opacity="0.5" d="M473.37 296.9C474.337 299.369 474.602 302.056 474.136 304.666C473.581 306.663 473.896 306.618 475.158 309.172C476.419 311.725 475.278 314.294 472.394 317.042C469.51 319.791 469.645 320.902 470.456 322.239C471.267 323.576 469.826 325.048 465.95 327.586C462.075 330.125 462.451 330.59 462.676 332.468C462.781 333.384 461.174 334.39 459.342 335.186L441.002 337.364L440.401 332.363C440.898 331.56 441.578 330.886 442.384 330.395C444.036 329.554 444.216 330.981 446.605 330.846C448.993 330.71 448.317 327.751 452.087 325.709C453.949 324.687 455.917 324.597 457.329 322.945C458.741 321.293 459.402 319.205 461.504 318.439C463.607 317.673 464.073 315.72 464.073 313.002C464.073 310.283 464.073 307.384 466.626 306.108C469.18 304.831 470.111 304.41 471.132 300.61C472.154 296.81 472.559 295.383 473.37 296.9Z" fill="white"/>
<path d="M472.094 313.407L469.014 314.293C470.999 310.22 472.433 305.902 473.28 301.451C473.284 301.43 473.284 301.407 473.28 301.386C473.275 301.364 473.267 301.343 473.254 301.325C473.241 301.307 473.225 301.291 473.206 301.28C473.188 301.268 473.167 301.26 473.145 301.256C473.1 301.251 473.054 301.261 473.015 301.286C472.977 301.31 472.948 301.348 472.935 301.391C472.073 305.91 470.603 310.291 468.564 314.414L467.888 310.058C467.886 310.035 467.88 310.012 467.869 309.992C467.858 309.971 467.842 309.953 467.824 309.939C467.805 309.925 467.784 309.915 467.762 309.909C467.739 309.904 467.716 309.903 467.693 309.908C467.669 309.911 467.646 309.92 467.625 309.932C467.605 309.945 467.587 309.961 467.573 309.981C467.559 310.001 467.549 310.023 467.544 310.046C467.539 310.07 467.538 310.094 467.542 310.118L468.248 314.624C468.264 314.669 468.29 314.71 468.323 314.744C466.597 318.154 464.507 321.367 462.09 324.327L460.889 320.271C460.882 320.249 460.87 320.228 460.855 320.209C460.84 320.191 460.822 320.176 460.801 320.165C460.78 320.153 460.757 320.147 460.733 320.144C460.71 320.142 460.686 320.144 460.663 320.151C460.641 320.156 460.62 320.166 460.602 320.18C460.584 320.193 460.569 320.21 460.557 320.23C460.546 320.25 460.539 320.272 460.537 320.294C460.534 320.317 460.536 320.34 460.543 320.362L461.82 324.657C459.2 327.813 456.25 330.678 453.018 333.204L453.258 327.646C453.259 327.601 453.242 327.557 453.211 327.524C453.18 327.49 453.138 327.47 453.093 327.466C453.07 327.464 453.047 327.467 453.025 327.474C453.004 327.481 452.984 327.493 452.967 327.509C452.95 327.524 452.936 327.543 452.927 327.564C452.918 327.585 452.913 327.608 452.913 327.631L452.658 333.489C450.907 334.87 449.043 336.101 447.085 337.169C447.046 337.194 447.018 337.231 447.004 337.275C446.99 337.319 446.992 337.367 447.01 337.409C447.025 337.439 447.049 337.464 447.079 337.48C447.108 337.496 447.142 337.503 447.175 337.499H447.25C449.226 336.419 451.11 335.178 452.883 333.789L458.35 332.813C458.373 332.811 458.396 332.805 458.416 332.794C458.437 332.783 458.455 332.768 458.469 332.749C458.483 332.731 458.493 332.709 458.499 332.687C458.504 332.664 458.505 332.641 458.5 332.618C458.497 332.594 458.489 332.572 458.476 332.552C458.463 332.532 458.446 332.515 458.426 332.502C458.406 332.489 458.384 332.481 458.36 332.478C458.337 332.474 458.313 332.476 458.29 332.483L453.604 333.444C455.335 332.09 456.985 330.635 458.545 329.088C459.687 327.932 460.919 326.61 462.165 325.123L467.062 324.537C467.085 324.535 467.108 324.529 467.128 324.518C467.149 324.507 467.166 324.492 467.181 324.473C467.195 324.455 467.205 324.433 467.21 324.411C467.216 324.388 467.216 324.365 467.212 324.342C467.21 324.32 467.204 324.299 467.194 324.28C467.184 324.26 467.17 324.243 467.153 324.229C467.136 324.215 467.117 324.205 467.096 324.198C467.075 324.192 467.053 324.19 467.032 324.192L462.436 324.732C464.932 321.669 467.083 318.339 468.849 314.804L472.244 313.813C472.286 313.799 472.322 313.77 472.344 313.731C472.367 313.692 472.374 313.646 472.364 313.603C472.372 313.568 472.37 313.531 472.358 313.498C472.345 313.464 472.323 313.435 472.294 313.414C472.265 313.393 472.231 313.382 472.195 313.38C472.159 313.379 472.124 313.388 472.094 313.407Z" fill="white"/>
<path d="M480.91 282.076C477.22 281.125 473.34 281.202 469.69 282.301C466.942 283.442 466.942 282.992 463.052 281.61C459.161 280.228 455.722 282.301 452.297 286.882C448.873 291.463 447.251 291.463 445.193 290.547C443.135 289.631 441.303 291.914 438.329 297.862C435.355 303.81 434.664 303.359 431.915 303.359C430.608 303.359 429.452 305.912 428.596 308.586V335.126H435.835C436.904 334.287 437.759 333.206 438.329 331.972C439.245 329.464 437.187 329.464 436.947 325.964C436.706 322.464 441.077 322.96 443.36 317.267C444.502 314.429 444.292 311.62 446.364 309.322C448.437 307.024 451.351 305.732 452.012 302.608C452.673 299.484 455.451 298.492 459.342 298.102C463.232 297.711 467.347 297.186 468.729 293.296C470.111 289.405 470.562 288.024 475.819 285.966C481.076 283.908 483.193 282.992 480.91 282.076Z" fill="#00A896"/>
<path d="M474.632 283.157C474.615 283.114 474.582 283.079 474.54 283.059C474.498 283.04 474.451 283.037 474.407 283.052C468.152 285.031 462.191 287.839 456.683 291.403L457.464 286.672C457.468 286.65 457.468 286.628 457.464 286.606C457.459 286.584 457.45 286.564 457.438 286.545C457.425 286.527 457.409 286.512 457.39 286.5C457.372 286.488 457.351 286.48 457.329 286.476C457.305 286.472 457.281 286.473 457.257 286.478C457.234 286.483 457.212 286.493 457.192 286.507C457.172 286.521 457.156 286.539 457.143 286.559C457.131 286.58 457.122 286.603 457.119 286.627L456.277 291.658C451.476 294.814 447.038 298.491 443.045 302.623V295.804C443.045 295.76 443.027 295.718 442.996 295.687C442.965 295.656 442.923 295.639 442.88 295.639C442.857 295.637 442.834 295.639 442.812 295.647C442.79 295.654 442.77 295.666 442.753 295.681C442.736 295.697 442.722 295.716 442.713 295.737C442.704 295.758 442.699 295.781 442.699 295.804V302.908C440.762 304.936 439.08 306.919 437.623 308.766C435.63 311.373 433.794 314.097 432.125 316.922L432.546 309.592C432.548 309.569 432.545 309.546 432.538 309.524C432.531 309.503 432.519 309.483 432.503 309.466C432.488 309.449 432.469 309.435 432.448 309.426C432.427 309.417 432.404 309.412 432.381 309.412C432.335 309.412 432.292 309.429 432.258 309.459C432.225 309.49 432.204 309.532 432.2 309.577L431.75 317.568C430.07 320.334 428.618 323.232 427.409 326.234C427.4 326.256 427.395 326.279 427.395 326.303C427.395 326.326 427.401 326.35 427.411 326.371C427.42 326.392 427.435 326.411 427.453 326.426C427.471 326.442 427.492 326.453 427.514 326.46C427.549 326.458 427.582 326.445 427.609 326.424C427.636 326.402 427.655 326.373 427.664 326.34C428.878 323.369 430.319 320.497 431.975 317.748L440.356 316.381C440.401 316.374 440.442 316.35 440.47 316.313C440.498 316.277 440.511 316.232 440.506 316.186C440.503 316.162 440.494 316.139 440.482 316.119C440.469 316.098 440.453 316.081 440.433 316.067C440.413 316.053 440.391 316.043 440.368 316.037C440.344 316.032 440.32 316.032 440.296 316.036L432.215 317.358C433.936 314.48 435.832 311.711 437.893 309.067C439.395 307.204 441.062 305.191 443.03 303.149L449.458 304.245C449.499 304.242 449.537 304.226 449.567 304.199C449.597 304.171 449.617 304.135 449.624 304.095C449.629 304.05 449.619 304.004 449.594 303.965C449.569 303.927 449.532 303.898 449.488 303.885L443.3 302.818C447.181 298.808 451.488 295.232 456.142 292.154C456.132 292.193 456.132 292.235 456.142 292.274C456.181 292.288 456.224 292.288 456.262 292.274L462.901 292.499C462.946 292.497 462.988 292.479 463.021 292.449C463.053 292.419 463.075 292.378 463.082 292.334C463.082 292.286 463.063 292.241 463.029 292.207C462.995 292.173 462.949 292.154 462.901 292.154L456.473 291.929V291.824C462.032 288.203 468.054 285.349 474.377 283.337C474.404 283.357 474.438 283.368 474.472 283.369C474.507 283.369 474.541 283.358 474.569 283.338C474.597 283.318 474.618 283.29 474.629 283.258C474.641 283.225 474.642 283.19 474.632 283.157Z" fill="white"/>
<path d="M524.318 299.619C523.988 301.692 523.402 305.221 522.726 308.09C521.933 312.988 521.431 317.928 521.224 322.885C519.825 315.908 517.565 309.132 514.495 302.713C509.779 293.476 492.971 283.548 492.971 283.548C497.193 287.602 501.02 292.048 504.402 296.825C510.62 305.402 513.324 324.237 513.324 324.237C510.763 319.499 507.34 315.281 503.23 311.8C496.666 306.408 478.011 301.031 478.011 301.031C478.011 301.031 491.289 310.448 497.342 317.177C500.766 321.038 503.271 325.624 504.672 330.59H524.333L524.318 299.619Z" fill="#00A896"/>
<path d="M448.993 237.812H393.509V270.495H448.993V237.812Z" fill="#263238"/>
<path opacity="0.46" d="M448.993 237.812H393.509V270.495H448.993V237.812Z" fill="white"/>
<path d="M422.933 260.672C421.581 259.694 419.986 259.107 418.322 258.975C417.03 258.975 417.09 258.825 415.724 257.638C414.357 256.451 412.629 256.752 410.512 258.074C408.394 259.395 407.718 259.14 407.027 258.434C406.336 257.728 405.225 258.434 403.062 260.327C400.899 262.219 400.704 261.979 399.577 261.543C399.036 261.333 398.165 262.189 397.399 263.15L393.164 273.965L396.168 275.121C396.728 274.941 397.241 274.638 397.67 274.235C398.436 273.349 397.594 273.019 398.045 271.592C398.496 270.165 400.208 271.021 402.055 269.053C402.957 268.092 403.332 266.905 404.564 266.305C405.795 265.704 407.162 265.644 407.928 264.472C408.694 263.301 409.986 263.346 411.638 263.781C413.29 264.217 415.048 264.682 416.234 263.316C416.65 262.638 417.257 262.1 417.979 261.768C418.701 261.437 419.505 261.327 420.29 261.453C422.738 261.453 423.714 261.348 422.933 260.672Z" fill="#00A896"/>
<path opacity="0.5" d="M422.933 260.672C421.581 259.694 419.986 259.107 418.322 258.975C417.03 258.975 417.09 258.825 415.724 257.638C414.357 256.451 412.629 256.752 410.512 258.074C408.394 259.395 407.718 259.14 407.027 258.434C406.336 257.728 405.225 258.434 403.062 260.327C400.899 262.219 400.704 261.979 399.577 261.543C399.036 261.333 398.165 262.189 397.399 263.15L393.164 273.965L396.168 275.121C396.728 274.941 397.241 274.638 397.67 274.235C398.436 273.349 397.594 273.019 398.045 271.592C398.496 270.165 400.208 271.021 402.055 269.053C402.957 268.092 403.332 266.905 404.564 266.305C405.795 265.704 407.162 265.644 407.928 264.472C408.694 263.301 409.986 263.346 411.638 263.781C413.29 264.217 415.048 264.682 416.234 263.316C416.65 262.638 417.257 262.1 417.979 261.768C418.701 261.437 419.505 261.327 420.29 261.453C422.738 261.453 423.714 261.348 422.933 260.672Z" fill="black"/>
<path d="M420.154 260.011C417.308 259.82 414.45 260.006 411.653 260.567L412.689 258.84C412.699 258.83 412.707 258.818 412.713 258.805C412.718 258.792 412.721 258.779 412.721 258.765C412.721 258.751 412.718 258.737 412.713 258.724C412.707 258.711 412.699 258.699 412.689 258.689C412.668 258.672 412.642 258.663 412.614 258.663C412.587 258.663 412.561 258.672 412.539 258.689L411.413 260.597C408.982 261.116 406.615 261.897 404.353 262.925L405.405 260.222C405.414 260.213 405.422 260.203 405.427 260.191C405.432 260.179 405.435 260.167 405.435 260.154C405.435 260.141 405.432 260.128 405.427 260.117C405.422 260.105 405.414 260.095 405.405 260.086C405.395 260.076 405.383 260.068 405.37 260.063C405.357 260.058 405.344 260.055 405.33 260.055C405.316 260.055 405.302 260.058 405.289 260.063C405.276 260.068 405.264 260.076 405.254 260.086L404.128 262.985C403.1 263.458 402.097 263.984 401.124 264.562C399.935 265.268 398.787 266.04 397.684 266.875L398.976 264.082C398.993 264.06 399.003 264.034 399.003 264.007C399.003 263.979 398.993 263.953 398.976 263.931C398.966 263.921 398.955 263.914 398.942 263.908C398.929 263.903 398.915 263.9 398.901 263.9C398.887 263.9 398.873 263.903 398.86 263.908C398.847 263.914 398.836 263.921 398.826 263.931L397.324 267.101C396.203 267.961 395.154 268.911 394.185 269.939C394.164 269.962 394.152 269.991 394.152 270.022C394.152 270.053 394.164 270.082 394.185 270.105H394.26H394.35C395.317 269.088 396.361 268.149 397.474 267.296L401.064 268.077C401.089 268.077 401.114 268.068 401.133 268.052C401.153 268.035 401.165 268.012 401.169 267.987C401.169 267.987 401.169 267.882 401.079 267.867L397.669 267.131C399.715 265.558 401.926 264.213 404.263 263.12L406.666 264.622C406.679 264.632 406.695 264.637 406.711 264.637C406.728 264.637 406.743 264.632 406.756 264.622C406.774 264.601 406.783 264.575 406.783 264.547C406.783 264.52 406.774 264.493 406.756 264.472L404.473 263.105C406.66 262.107 408.946 261.342 411.293 260.822L413.951 261.979C413.967 261.988 413.985 261.993 414.004 261.993C414.022 261.993 414.04 261.988 414.056 261.979C414.066 261.969 414.074 261.957 414.08 261.944C414.085 261.932 414.088 261.918 414.088 261.904C414.088 261.89 414.085 261.876 414.08 261.863C414.074 261.85 414.066 261.838 414.056 261.829L411.518 260.732C414.352 260.149 417.252 259.947 420.139 260.131C420.139 260.131 420.244 260.131 420.244 260.026C420.232 260.016 420.217 260.009 420.201 260.006C420.186 260.004 420.169 260.005 420.154 260.011Z" fill="white"/>
<path d="M416.97 249.332C417.567 250.886 417.734 252.573 417.451 254.213C417.09 255.46 417.286 255.445 418.082 257.067C418.878 258.689 418.082 260.282 416.354 262.009C414.627 263.736 414.627 264.427 415.123 265.283C415.618 266.139 414.732 267.041 412.299 268.648C409.866 270.255 410.091 270.51 410.241 271.652C410.241 272.222 409.25 272.853 408.139 273.364L396.603 274.731L396.243 271.592C396.545 271.081 396.968 270.653 397.474 270.345C398.526 269.819 398.631 270.705 400.133 270.63C401.635 270.555 401.214 268.693 403.587 267.401C404.759 266.755 405.991 266.695 406.877 265.659C407.763 264.622 408.184 263.316 409.505 262.865C410.827 262.414 411.112 261.153 411.112 259.44C411.112 257.728 411.112 255.911 412.72 255.115C413.477 254.881 414.148 254.428 414.647 253.813C415.147 253.198 415.454 252.449 415.528 251.66C416.159 249.332 416.445 248.371 416.97 249.332Z" fill="#00A896"/>
<path opacity="0.5" d="M416.97 249.332C417.567 250.886 417.734 252.573 417.451 254.213C417.09 255.46 417.286 255.445 418.082 257.067C418.878 258.689 418.082 260.282 416.354 262.009C414.627 263.736 414.627 264.427 415.123 265.283C415.618 266.139 414.732 267.041 412.299 268.648C409.866 270.255 410.091 270.51 410.241 271.652C410.241 272.222 409.25 272.853 408.139 273.364L396.603 274.731L396.243 271.592C396.545 271.081 396.968 270.653 397.474 270.345C398.526 269.819 398.631 270.705 400.133 270.63C401.635 270.555 401.214 268.693 403.587 267.401C404.759 266.755 405.991 266.695 406.877 265.659C407.763 264.622 408.184 263.316 409.505 262.865C410.827 262.414 411.112 261.153 411.112 259.44C411.112 257.728 411.112 255.911 412.72 255.115C413.477 254.881 414.148 254.428 414.647 253.813C415.147 253.198 415.454 252.449 415.528 251.66C416.159 249.332 416.445 248.371 416.97 249.332Z" fill="white"/>
<path d="M416.159 259.696L414.222 260.267C415.466 257.702 416.37 254.985 416.91 252.186C416.91 252.186 416.91 252.081 416.82 252.066C416.79 252.061 416.76 252.068 416.735 252.084C416.71 252.101 416.692 252.127 416.685 252.156C416.141 254.996 415.216 257.749 413.936 260.342L413.516 257.593C413.516 257.593 413.516 257.503 413.396 257.503C413.366 257.51 413.341 257.528 413.324 257.553C413.307 257.578 413.301 257.608 413.305 257.638L413.741 260.507C413.734 260.531 413.734 260.557 413.741 260.582C412.654 262.72 411.34 264.734 409.821 266.59L409.07 264.037C409.057 264.009 409.035 263.987 409.008 263.973C408.98 263.959 408.949 263.955 408.92 263.961C408.92 263.961 408.829 264.052 408.92 264.097L409.716 266.8C408.065 268.785 406.207 270.587 404.173 272.177L404.323 268.678C404.323 268.65 404.312 268.623 404.293 268.603C404.273 268.584 404.246 268.573 404.218 268.573C404.19 268.573 404.164 268.584 404.144 268.603C404.124 268.623 404.113 268.65 404.113 268.678L403.948 272.343C402.847 273.214 401.677 273.992 400.448 274.671C400.431 274.692 400.422 274.719 400.422 274.746C400.422 274.773 400.431 274.8 400.448 274.821C400.465 274.829 400.483 274.833 400.501 274.833C400.519 274.833 400.537 274.829 400.553 274.821C401.792 274.136 402.978 273.358 404.098 272.493L407.538 271.877C407.564 271.87 407.587 271.855 407.604 271.833C407.62 271.811 407.629 271.784 407.628 271.757C407.621 271.728 407.603 271.702 407.578 271.686C407.553 271.669 407.522 271.662 407.493 271.667L404.489 272.192C405.575 271.346 406.609 270.433 407.583 269.459C408.319 268.738 409.085 267.957 409.866 266.965L412.96 266.59C412.96 266.59 413.05 266.59 413.05 266.47C413.051 266.455 413.048 266.44 413.042 266.427C413.036 266.413 413.026 266.401 413.014 266.393C413.002 266.384 412.988 266.378 412.974 266.376C412.959 266.373 412.944 266.375 412.93 266.38L410.046 266.725C411.612 264.796 412.962 262.701 414.071 260.477L416.204 259.846C416.218 259.846 416.232 259.843 416.244 259.838C416.257 259.833 416.269 259.825 416.279 259.815C416.288 259.805 416.296 259.794 416.301 259.781C416.307 259.768 416.309 259.755 416.309 259.741C416.309 259.727 416.307 259.713 416.301 259.701C416.296 259.688 416.288 259.676 416.279 259.667C416.269 259.657 416.257 259.649 416.244 259.644C416.232 259.638 416.218 259.636 416.204 259.636L416.159 259.696Z" fill="white"/>
<path d="M421.702 240.005C419.379 239.41 416.938 239.462 414.642 240.155C412.915 240.861 412.915 240.575 410.467 239.719C408.018 238.863 405.87 240.155 403.708 243.024C401.545 245.892 400.538 245.907 399.202 245.337C397.865 244.766 396.753 246.193 394.891 249.933C393.028 253.673 392.578 253.387 390.85 253.387C390.024 253.387 389.348 254.995 388.763 256.677V273.364H393.269C393.94 272.833 394.48 272.155 394.846 271.381C395.417 269.789 394.125 269.789 393.975 267.641C393.824 265.494 396.573 265.764 398 262.174C398.721 260.387 398.586 258.614 399.923 257.172C401.259 255.731 403.047 254.919 403.467 252.952C403.888 250.984 405.63 250.368 408.078 250.083C410.527 249.798 413.11 249.497 413.981 247.079C414.852 244.661 415.138 243.76 418.487 242.468C421.837 241.176 423.144 240.575 421.702 240.005Z" fill="#00A896"/>
<path d="M417.766 240.696C417.763 240.681 417.757 240.668 417.748 240.657C417.739 240.645 417.728 240.635 417.715 240.628C417.702 240.621 417.688 240.617 417.674 240.616C417.659 240.614 417.645 240.616 417.631 240.62C413.699 241.87 409.951 243.638 406.486 245.877L406.982 242.873C406.987 242.844 406.98 242.813 406.963 242.788C406.946 242.763 406.921 242.745 406.892 242.738C406.892 242.738 406.772 242.738 406.772 242.828L406.231 245.998C403.212 247.982 400.421 250.294 397.91 252.892V248.611C397.91 248.597 397.907 248.584 397.902 248.571C397.897 248.558 397.889 248.546 397.879 248.537C397.869 248.527 397.858 248.519 397.845 248.514C397.832 248.509 397.819 248.506 397.805 248.506C397.791 248.506 397.777 248.509 397.764 248.514C397.752 248.519 397.74 248.527 397.73 248.537C397.721 248.546 397.713 248.558 397.708 248.571C397.702 248.584 397.7 248.597 397.7 248.611V253.117C396.468 254.394 395.416 255.64 394.5 256.797C393.239 258.414 392.076 260.104 391.016 261.859L391.286 257.248C391.286 257.22 391.275 257.193 391.255 257.173C391.236 257.153 391.209 257.142 391.181 257.142C391.167 257.137 391.152 257.136 391.137 257.138C391.122 257.14 391.109 257.146 391.097 257.155C391.085 257.164 391.075 257.176 391.069 257.189C391.063 257.203 391.06 257.218 391.061 257.233L390.775 262.264C389.717 264.004 388.803 265.828 388.042 267.716C388.037 267.73 388.035 267.745 388.037 267.759C388.038 267.774 388.043 267.788 388.05 267.801C388.057 267.813 388.066 267.824 388.078 267.833C388.089 267.842 388.103 267.848 388.117 267.852C388.14 267.85 388.162 267.843 388.18 267.829C388.199 267.816 388.213 267.798 388.222 267.777C388.982 265.907 389.886 264.099 390.926 262.369L396.198 261.513C396.198 261.513 396.303 261.513 396.288 261.393C396.284 261.364 396.27 261.337 396.248 261.318C396.225 261.298 396.197 261.288 396.168 261.288L391.076 262.114C392.157 260.309 393.351 258.573 394.65 256.917C395.567 255.746 396.648 254.484 397.88 253.192L401.92 253.883C401.92 253.883 402.025 253.883 402.025 253.793C402.03 253.779 402.032 253.764 402.029 253.749C402.027 253.734 402.021 253.721 402.012 253.709C402.004 253.697 401.992 253.687 401.978 253.681C401.965 253.675 401.95 253.672 401.935 253.673L398.045 252.997C400.492 250.478 403.201 248.227 406.126 246.283C406.118 246.307 406.118 246.334 406.126 246.358C406.137 246.365 406.15 246.368 406.163 246.368C406.177 246.368 406.189 246.365 406.201 246.358L410.376 246.508C410.407 246.505 410.436 246.491 410.458 246.469C410.48 246.448 410.493 246.419 410.497 246.388C410.497 246.36 410.486 246.333 410.466 246.314C410.446 246.294 410.419 246.283 410.391 246.283L406.336 246.148V246.073C409.832 243.793 413.622 241.999 417.601 240.741C417.612 240.756 417.627 240.769 417.644 240.775C417.662 240.782 417.682 240.783 417.7 240.778C417.718 240.773 417.735 240.762 417.746 240.747C417.758 240.733 417.765 240.714 417.766 240.696Z" fill="white"/>
<path d="M448.993 251.029C448.783 252.336 448.407 254.559 447.986 256.361C447.488 259.444 447.172 262.554 447.04 265.674C446.17 261.283 444.752 257.019 442.82 252.982C439.816 247.169 429.302 240.966 429.302 240.966C431.953 243.517 434.357 246.313 436.481 249.317C440.401 254.709 442.084 266.545 442.084 266.545C440.485 263.559 438.334 260.903 435.745 258.72C431.63 255.34 419.884 251.961 419.884 251.961C424.208 255.004 428.277 258.394 432.05 262.099C434.196 264.532 435.767 267.417 436.646 270.54H449.008L448.993 251.029Z" fill="#00A896"/>
<path d="M524.303 338.235H435.64V390.956H524.303V338.235Z" fill="#263238"/>
<path opacity="0.18" d="M524.303 338.235H435.64V390.956H524.303V338.235Z" fill="white"/>
<path d="M509.944 369.132C507.135 366.999 504.056 364.911 501.067 362.898C490.839 355.959 480.325 348.824 477.561 338.235H469.886C472.574 352.61 485.386 361.336 496.922 369.101C499.926 371.159 502.81 373.097 505.468 375.109C511.191 379.45 513.969 385.098 512.573 389.529C512.418 390.053 512.202 390.558 511.927 391.031H519.947C521.735 383.641 517.92 375.17 509.944 369.132Z" fill="white"/>
<path d="M475.038 381.072C471.269 374.371 466.759 368.113 461.595 362.418C450.255 350.402 441.047 345.145 435.64 342.892V351.123C440.341 353.526 447.446 358.242 456.127 367.494C460.916 372.805 465.098 378.634 468.594 384.872C469.856 386.96 471.072 388.988 472.349 390.88H481.691C479.194 387.81 476.967 384.528 475.038 381.072Z" fill="white"/>
<path d="M524.318 365.181C521.314 360.976 520.443 354.878 519.166 345.655C518.851 343.372 518.491 340.894 518.085 338.25H510.485C510.966 341.254 511.371 344.108 511.717 346.677C513.549 359.834 514.886 369.447 524.318 375.32V365.181Z" fill="white"/>
<path d="M496.787 346.962C499.275 346.962 501.293 344.945 501.293 342.456C501.293 339.967 499.275 337.95 496.787 337.95C494.298 337.95 492.281 339.967 492.281 342.456C492.281 344.945 494.298 346.962 496.787 346.962Z" fill="white"/>
<path d="M493.032 386.39C495.52 386.39 497.538 384.372 497.538 381.884C497.538 379.395 495.52 377.378 493.032 377.378C490.543 377.378 488.526 379.395 488.526 381.884C488.526 384.372 490.543 386.39 493.032 386.39Z" fill="white"/>
<path d="M461.865 351.468C464.354 351.468 466.371 349.451 466.371 346.962C466.371 344.473 464.354 342.456 461.865 342.456C459.377 342.456 457.359 344.473 457.359 346.962C457.359 349.451 459.377 351.468 461.865 351.468Z" fill="white"/>
<path d="M535.658 616.316C575.202 616.316 607.259 605.354 607.259 591.833C607.259 578.312 575.202 567.35 535.658 567.35C496.114 567.35 464.058 578.312 464.058 591.833C464.058 605.354 496.114 616.316 535.658 616.316Z" fill="#00A896"/>
<path opacity="0.5" d="M535.658 616.316C575.202 616.316 607.259 605.354 607.259 591.833C607.259 578.312 575.202 567.35 535.658 567.35C496.114 567.35 464.058 578.312 464.058 591.833C464.058 605.354 496.114 616.316 535.658 616.316Z" fill="white"/>
<path d="M629.789 673.392C669.332 673.392 701.389 662.43 701.389 648.909C701.389 635.388 669.332 624.426 629.789 624.426C590.245 624.426 558.188 635.388 558.188 648.909C558.188 662.43 590.245 673.392 629.789 673.392Z" fill="#00A896"/>
<path opacity="0.5" d="M629.789 673.392C669.332 673.392 701.389 662.43 701.389 648.909C701.389 635.388 669.332 624.426 629.789 624.426C590.245 624.426 558.188 635.388 558.188 648.909C558.188 662.43 590.245 673.392 629.789 673.392Z" fill="white"/>
<path d="M591.788 585.78C591.788 585.78 582.686 575.762 556.506 567.02C530.326 558.278 491.995 570.43 482.577 577.654C473.16 584.879 472.529 588.709 484.56 592.569C496.591 596.429 515.171 600.079 536.049 611.419C556.926 622.759 572.172 628.422 590.887 617.773C609.602 607.123 599.643 593.41 591.788 585.78Z" fill="white" stroke="#263238" stroke-linecap="round" stroke-linejoin="round"/>
<path d="M531.498 600.95C512.663 590.677 489.562 590.556 480.43 590.992C481.798 591.569 483.197 592.07 484.62 592.494C496.636 596.339 515.231 600.004 536.109 611.344C550.693 619.29 562.514 624.411 574.695 623.18C546.818 617.322 550.047 611.089 531.498 600.95Z" fill="white"/>
<path d="M531.498 600.95C512.663 590.677 489.562 590.556 480.43 590.992C481.798 591.569 483.197 592.07 484.62 592.494C496.636 596.339 515.231 600.004 536.109 611.344C550.693 619.29 562.514 624.411 574.695 623.18C546.818 617.322 550.047 611.089 531.498 600.95Z" fill="#263238" stroke="#263238" stroke-linecap="round" stroke-linejoin="round"/>
<path d="M531.498 600.95C512.663 590.677 489.562 590.556 480.43 590.992C481.798 591.569 483.197 592.07 484.62 592.494C496.636 596.339 515.231 600.004 536.109 611.344C550.693 619.29 562.514 624.411 574.695 623.18C546.818 617.322 550.047 611.089 531.498 600.95Z" stroke="#263238" stroke-linecap="round" stroke-linejoin="round"/>
<path d="M609.316 446.244C606.237 450.666 603.818 455.514 602.137 460.633C599.989 467.963 598.923 477.155 601.656 478.042C604.39 478.928 610.593 477.336 610.593 477.336L612.335 486.348L623.54 482.172L624.261 472.469C624.261 472.469 633.453 463.968 631.771 454.956C630.089 445.944 616.661 440.627 609.316 446.244Z" fill="white" stroke="#263238" stroke-linecap="round" stroke-linejoin="round"/>
<path d="M616.285 436.812C616.285 436.812 596.114 436.812 601.1 441.918C606.087 447.025 609.902 451.321 609.902 451.321C609.902 451.321 606.898 456.233 607.844 457.614C608.791 458.996 609.677 459.372 609.812 460.138C609.947 460.904 606.117 462.811 608.505 464.749C610.893 466.686 612.651 461.745 612.23 463.863C611.81 465.98 612.23 473.175 618.103 475.879C623.976 478.582 628.752 473.07 632.612 471.373C636.472 469.675 642.691 463.487 639.717 450.27C636.743 437.052 620.656 435.054 616.285 436.812Z" fill="#263238" stroke="#263238" stroke-linecap="round" stroke-linejoin="round"/>
<path d="M606.267 471.628C606.267 471.628 605.772 473.265 608.746 472.514C611.72 471.763 611.975 467.062 611.975 467.062" stroke="#263238" stroke-linecap="round" stroke-linejoin="round"/>
<path d="M604.99 493.512C604.99 493.512 607.063 487.219 609.662 485.762C612.26 484.305 625.057 480.37 627.581 479.949C630.104 479.529 633.589 485.401 633.589 485.401L604.99 493.512Z" fill="white" stroke="#263238" stroke-linecap="round" stroke-linejoin="round"/>
<path d="M574.169 573.674C573.895 574.153 573.528 574.572 573.09 574.908C572.651 575.243 572.15 575.487 571.616 575.626C570.414 575.957 567.951 576.783 566.945 577.038C565.938 577.294 565.923 576.843 566.059 576.152C566.194 575.461 567.711 574.755 568.342 574.65C566.509 572.352 560.081 572.172 558.398 571.646C556.716 571.12 557.362 571.045 558.008 570.655C558.654 570.264 562.183 570.895 563.235 571C561.284 570.603 559.415 569.877 557.708 568.852C556.536 567.921 557.963 568.026 558.248 567.786C560.229 568.656 562.364 569.12 564.527 569.153C562.581 568.882 560.722 568.174 559.089 567.08C558.804 566.449 559.27 566.239 559.84 566.179C561.509 566.965 563.295 567.472 565.127 567.681C563.765 567.189 562.461 566.549 561.237 565.773C561.928 565.323 561.402 565.022 562.739 565.293C564.6 565.77 566.43 566.357 568.222 567.05C570.371 568.216 572.25 569.823 573.734 571.766C574.635 572.983 574.62 572.833 574.169 573.674Z" fill="white" stroke="#263238" stroke-linecap="round" stroke-linejoin="round"/>
<path d="M574.169 573.674L596.084 553.637L611.224 534.111L598.682 519.572L587.823 547.299L571.541 569.904C571.541 569.904 569.889 571.886 574.169 573.674Z" fill="#00A896" stroke="#263238" stroke-linecap="round" stroke-linejoin="round"/>
<path d="M549.567 576.768C549.516 575.407 548.983 574.108 548.065 573.103L543.409 567.816C543.409 567.816 542.252 566.99 542.102 568.282C541.952 569.573 544.024 571.511 544.024 571.511H533.09C533.09 571.511 531.948 571.796 532.729 572.683C533.51 573.569 537.641 573.388 537.641 573.388L532.053 574.89C532.053 574.89 530.927 575.566 532.579 576.392L538.197 575.957L533.3 577.654C533.3 577.654 532.564 578.54 533.766 578.976L538.392 577.955L535.057 579.892C535.057 579.892 535.057 580.898 535.959 580.748C536.86 580.598 540.675 579.472 540.675 579.472C543.323 579.22 545.955 578.824 548.56 578.285C550.363 577.759 549.567 576.768 549.567 576.768Z" fill="white" stroke="#263238" stroke-linecap="round" stroke-linejoin="round"/>
<path d="M650.636 583.197L635.781 611.014L684.596 639.987L682.614 645.995C682.614 645.995 631.816 631.711 621.032 624.967C610.247 618.223 613.522 604.735 615.024 602.347C616.526 599.959 626.139 574.966 626.139 574.966C626.139 574.966 643.667 562.514 650.636 583.197Z" fill="#263238" stroke="#263238" stroke-linecap="round" stroke-linejoin="round"/>
<path d="M610.473 565.533L612.726 576.047C612.726 576.047 588.889 609.211 585.93 623.33C582.971 637.449 580.943 647.692 584.428 649.705C587.913 651.718 635.226 678.979 635.226 678.979L638.425 668.615C638.425 668.615 622.278 652.424 615.414 645.274C611.89 641.431 607.845 638.1 603.398 635.376L638.861 593.17C643.869 591.383 648.058 587.839 650.651 583.197C654.786 575.442 655.698 566.37 653.19 557.948C653.19 557.948 624.006 569.258 610.473 565.533Z" fill="#263238" stroke="#263238" stroke-linecap="round" stroke-linejoin="round"/>
<path d="M635.421 483.554C635.421 483.554 598.742 493.257 595.423 496.651C592.103 500.046 570.55 557.152 570.55 557.152L546.728 572.863C546.189 573.176 545.768 573.657 545.527 574.231C545.285 574.806 545.238 575.443 545.391 576.047C545.49 576.418 545.662 576.765 545.897 577.068C546.132 577.372 546.426 577.624 546.761 577.812C547.095 578 547.464 578.118 547.846 578.161C548.227 578.203 548.613 578.169 548.981 578.06L577.804 566.554L603.473 527.908L610.728 569.348C610.728 569.348 609.677 570.85 620.326 571.12C630.975 571.391 649.299 568.192 656.164 557.197C657.981 554.283 654.797 547.329 654.797 547.329C654.797 547.329 649.089 503.53 647.122 496.366C645.154 489.201 641.354 483.103 635.421 483.554Z" fill="#00A896" stroke="#263238" stroke-linecap="round" stroke-linejoin="round"/>
<path d="M596.414 504.477L603.458 527.908L595.137 518.49" stroke="#263238" stroke-linecap="round" stroke-linejoin="round"/>
<path d="M647.813 530.822C647.813 530.822 633.799 559.705 616.376 563.956" stroke="#263238" stroke-linecap="round" stroke-linejoin="round"/>
<path d="M635.812 667.789C635.812 667.789 641.084 661.556 645.274 664.019C649.465 666.482 650.111 672.34 650.832 676.636C651.552 680.932 655.578 682.464 655.413 687.15C655.247 691.836 653.625 695.336 651.522 695.997C649.42 696.658 646.836 690.469 641.985 685.918C639.57 683.732 637.298 681.394 635.181 678.919C635.181 678.919 632.492 672.43 635.812 667.789Z" fill="white" stroke="#263238" stroke-linecap="round" stroke-linejoin="round"/>
<path d="M651.522 696.057C653.625 695.396 655.262 691.971 655.413 687.21C655.563 682.449 651.538 680.932 650.832 676.696C650.126 672.46 649.45 666.528 645.274 664.079C644.862 663.838 644.409 663.675 643.937 663.599C642.903 664.32 642.16 665.385 641.841 666.605C641.522 667.824 641.647 669.117 642.195 670.252C644.493 676.486 648.203 680.271 650.156 685.948C651.402 689.688 650.321 693.458 650.396 695.877C650.559 695.988 650.744 696.062 650.939 696.093C651.134 696.124 651.333 696.112 651.522 696.057Z" fill="white" stroke="#263238" stroke-linecap="round" stroke-linejoin="round"/>
<path d="M683.951 638.741C683.951 638.741 689.448 632.732 693.534 635.331C697.619 637.929 698.04 643.832 698.61 648.158C699.181 652.484 703.116 654.166 702.801 658.897C702.485 663.629 700.683 666.993 698.565 667.579C696.447 668.165 691.656 657.065 686.985 652.289C682.314 647.512 682.614 645.935 682.614 645.935C682.614 645.935 680.406 643.247 683.951 638.741Z" fill="white" stroke="#263238" stroke-linecap="round" stroke-linejoin="round"/>
<path d="M698.565 667.579C700.683 666.993 702.455 663.644 702.801 658.897C703.146 654.151 702.801 653.37 700.037 647.017C698.325 643.006 697.634 638.005 693.533 635.331C693.133 635.076 692.69 634.893 692.227 634.79C691.167 635.475 690.386 636.514 690.02 637.721C689.654 638.928 689.728 640.226 690.229 641.384C692.287 647.707 695.922 651.628 697.589 657.365C698.685 661.15 697.469 664.875 697.454 667.309C697.607 667.434 697.786 667.523 697.979 667.57C698.171 667.617 698.371 667.62 698.565 667.579Z" fill="white" stroke="#263238" stroke-linecap="round" stroke-linejoin="round"/>
<path d="M617.127 621.122L645.71 588.378" stroke="white" stroke-linecap="round" stroke-linejoin="round"/>
<path d="M176.951 584.008C176.951 590.902 156.328 596.489 130.884 596.489C105.44 596.489 84.818 590.902 84.818 584.008C84.818 577.113 105.44 571.541 130.884 571.541C156.328 571.541 176.951 577.128 176.951 584.008Z" fill="#00A896"/>
<path opacity="0.5" d="M176.951 584.008C176.951 590.902 156.328 596.489 130.884 596.489C105.44 596.489 84.818 590.902 84.818 584.008C84.818 577.113 105.44 571.541 130.884 571.541C156.328 571.541 176.951 577.128 176.951 584.008Z" fill="white"/>
<path d="M123.555 353.075C123.555 353.075 122.053 369.041 122.368 379.39C122.683 389.739 124.441 417.241 114.092 417.241C103.743 417.241 93.9802 402.221 98.1257 383.536C102.271 364.851 114.978 359.579 117.336 353.676C118.192 351.346 119.196 349.074 120.34 346.872C120.34 346.872 122.368 342.726 123.555 353.075Z" fill="#263238" stroke="#263238" stroke-linecap="round" stroke-linejoin="round"/>
<path d="M160.218 425.517C161.919 435.697 163.087 445.96 163.718 456.263C164.304 469.871 156.328 495.585 153.955 500.316C151.582 505.047 149.224 521.9 149.224 521.9C148.184 527.886 146.805 533.809 145.093 539.639C142.72 547.028 139.461 567.005 139.461 567.005C139.461 567.005 146.565 574.23 148.938 576.603C151.312 578.976 155.727 581.034 153.955 582.506C152.183 583.978 137.103 579.261 133.257 577.489C132.315 576.941 131.524 576.167 130.957 575.235C130.391 574.304 130.066 573.246 130.013 572.157V565.368C130.013 565.368 129.412 537.566 130.013 528.103C130.614 518.641 134.519 513.083 134.519 510.365C134.519 507.646 116.195 467.798 117.081 451.531C117.589 441.837 120.428 432.408 125.357 424.045C125.357 424.045 140.407 435.58 160.218 425.517Z" fill="#263238" stroke="#263238" stroke-linecap="round" stroke-linejoin="round"/>
<path d="M117.336 366.383C117.336 366.383 128.872 362.252 136.261 361.877C143.651 361.501 149.269 363.95 151.642 368.381C154.015 372.811 159.032 383.746 161.39 389.078C163.748 394.41 164.95 400.899 162.576 406.216C161.354 409.056 159.97 411.825 158.431 414.507C158.431 414.507 161.105 425.141 160.218 426.628C159.332 428.115 152.228 432.576 141.879 432.576C131.53 432.576 125.913 429.917 123.855 426.959C121.797 424 111.148 395.957 109.361 387.381C107.573 378.804 112.019 371.415 117.336 366.383Z" fill="#00A896" stroke="#263238" stroke-linecap="round" stroke-linejoin="round"/>
<path d="M127.099 385.894L129.172 433.492L139.806 471.628L135.075 473.4L114.678 430.548C114.678 430.548 109.946 386.194 109.946 381.763C109.946 377.332 111.719 371.7 117.336 370.528" fill="#00A896"/>
<path d="M127.099 385.894L129.172 433.492L139.806 471.628L135.075 473.4L114.678 430.548C114.678 430.548 109.946 386.194 109.946 381.763C109.946 377.332 111.719 371.7 117.336 370.528" stroke="#263238" stroke-linecap="round" stroke-linejoin="round"/>
<path d="M154 500.316C154 500.316 155.772 471.343 146.911 450.059" stroke="white" stroke-linecap="round" stroke-linejoin="round"/>
<path d="M139.806 471.628L144.312 478.417L145.484 483.449C145.484 483.449 145.364 484.425 144.658 484.275C143.952 484.125 143.351 483.043 143.351 483.043C143.351 483.043 144.042 486.978 144.042 487.549C144.042 488.12 144.357 490.328 143.817 490.643C143.276 490.959 142.315 489.322 141.413 488.33C140.512 487.339 137.733 485.612 136.682 483.644C135.631 481.676 135.18 473.46 135.18 473.46L139.806 471.628Z" fill="white" stroke="#263238" stroke-linecap="round" stroke-linejoin="round"/>
<path d="M151.311 402.536C148.649 407.62 144.315 411.63 139.04 413.891" stroke="#263238" stroke-linecap="round" stroke-linejoin="round"/>
<path d="M130.058 572.157V569.258C136.412 569.799 139.506 567.02 139.506 567.02C139.506 567.02 146.61 574.245 148.983 576.618C151.357 578.991 155.772 581.049 154 582.521C152.228 583.993 137.148 579.276 133.303 577.504C132.358 576.955 131.566 576.178 130.999 575.244C130.432 574.31 130.109 573.248 130.058 572.157Z" fill="white" stroke="#263238" stroke-linecap="round" stroke-linejoin="round"/>
<path d="M138.665 360.855C138.665 360.855 142.435 360.36 143.171 363.379C143.907 366.398 147.677 372.196 147.947 373.457C148.217 374.719 142.915 370.453 142.915 370.453C140.399 367.863 138.892 364.459 138.665 360.855V360.855Z" stroke="#263238" stroke-linecap="round" stroke-linejoin="round"/>
<path d="M127.325 363.379L128.331 358.092L129.097 354.066L129.848 350.026C129.848 350.026 143.201 323.591 152.002 330.891C153.518 335.6 154.119 340.555 153.775 345.49C153.024 352.805 153.024 357.341 148.983 357.085C146.293 356.841 143.66 356.162 141.188 355.073L140.016 362.373L144.522 376.972L127.325 363.379Z" fill="white" stroke="#263238" stroke-linecap="round" stroke-linejoin="round"/>
<path d="M126.829 358.843L136.892 367.149C136.892 367.149 145.709 377.227 144.402 376.972C142.363 375.996 140.426 374.818 138.62 373.457L137.613 379.465L124.05 363.634L126.829 358.843Z" fill="white" stroke="#263238" stroke-linecap="round" stroke-linejoin="round"/>
<path d="M139.926 317.538C139.926 317.538 148.938 312.251 153.775 317.042C158.611 321.834 153.519 331.386 149.99 334.661C146.46 337.935 143.441 349.275 136.472 354.066C129.502 358.858 126.138 354.817 121.602 350.026C117.066 345.235 114.482 331.942 117.246 324.087C120.01 316.231 132.371 312.761 139.926 317.538Z" fill="#263238" stroke="#263238" stroke-linecap="round" stroke-linejoin="round"/>
</svg>
